<?xml version="1.0" encoding="UTF-8" standalone="no"?>
<!-- Created with Inkscape (http://www.inkscape.org/) -->

<svg
   xmlns:dc="http://purl.org/dc/elements/1.1/"
   xmlns:cc="http://creativecommons.org/ns#"
   xmlns:rdf="http://www.w3.org/1999/02/22-rdf-syntax-ns#"
   xmlns:svg="http://www.w3.org/2000/svg"
   xmlns="http://www.w3.org/2000/svg"
   xmlns:xlink="http://www.w3.org/1999/xlink"
   xmlns:sodipodi="http://sodipodi.sourceforge.net/DTD/sodipodi-0.dtd"
   xmlns:inkscape="http://www.inkscape.org/namespaces/inkscape"
   width="21.166666mm"
   height="21.166666mm"
   viewBox="0 0 21.166666 21.166666"
   version="1.1"
   id="svg3828"
   inkscape:version="0.92.4 (5da689c313, 2019-01-14)"
   sodipodi:docname="pluginIcon_dark2.svg">
  <defs
     id="defs3822" />
  <sodipodi:namedview
     id="base"
     pagecolor="#ffffff"
     bordercolor="#666666"
     borderopacity="1.0"
     inkscape:pageopacity="0.0"
     inkscape:pageshadow="2"
     inkscape:zoom="22.4"
     inkscape:cx="49.32369"
     inkscape:cy="73.07074"
     inkscape:document-units="mm"
     inkscape:current-layer="layer1"
     showgrid="false"
     inkscape:window-width="2560"
     inkscape:window-height="1335"
     inkscape:window-x="-13"
     inkscape:window-y="-13"
     inkscape:window-maximized="1" />
  <metadata
     id="metadata3825">
    <rdf:RDF>
      <cc:Work
         rdf:about="">
        <dc:format>image/svg+xml</dc:format>
        <dc:type
           rdf:resource="http://purl.org/dc/dcmitype/StillImage" />
        <dc:title />
      </cc:Work>
    </rdf:RDF>
  </metadata>
  <g
     inkscape:label="Layer 1"
     inkscape:groupmode="layer"
     id="layer1"
     transform="translate(526.14288,-26.369047)">
    <g
       id="g151">
      <path
         style="fill:#fefefe;stroke-width:0.04134114;fill-opacity:0;opacity:0"
         d="M -526.14288,36.95238 V 26.369047 h 10.58333 10.58334 V 36.95238 47.535713 h -10.58334 -10.58333 z"
         id="path167"
         inkscape:connector-curvature="0" />
      <path
         style="fill:#cececf;stroke-width:0.04134114"
         d="m -520.08502,46.60081 c -0.59623,-0.188773 -0.96901,-0.763921 -0.92191,-1.422334 0.0671,-0.937289 0.9279,-1.518595 1.69387,-1.143841 0.26143,0.127906 0.28086,0.131608 0.28086,0.05352 0,-0.07935 0.0927,-0.107776 0.3514,-0.107776 0.38142,0 0.3514,-0.111249 0.3514,1.302246 0,1.420095 0.034,1.302246 -0.37586,1.302246 -0.18902,0 -0.26035,-0.01784 -0.31187,-0.07801 -0.0652,-0.07617 -0.0713,-0.07572 -0.25797,0.01935 -0.25418,0.129433 -0.55054,0.156734 -0.80992,0.07461 z m 0.76765,-0.729902 c 0.0773,-0.05161 0.173,-0.158583 0.21276,-0.237712 0.0928,-0.18465 0.0928,-0.516501 0,-0.701151 -0.21478,-0.427478 -0.83318,-0.445829 -1.08537,-0.03221 -0.11304,0.185408 -0.11304,0.580159 0,0.765567 0.18075,0.296443 0.59163,0.393209 0.87261,0.205504 z m 7.70807,0.730703 c -1.11333,-0.355708 -1.32447,-1.80096 -0.35745,-2.446711 0.4805,-0.320869 1.0377,-0.314655 1.52214,0.01698 0.67533,0.462313 0.77804,1.4175 0.22069,2.052292 -0.30276,0.344823 -0.9422,0.519037 -1.38538,0.377442 z m 0.65447,-0.694196 c 0.2854,-0.119245 0.43508,-0.549962 0.31626,-0.910006 -0.106,-0.321181 -0.50153,-0.472141 -0.84221,-0.321442 -0.25738,0.113851 -0.35775,0.284061 -0.35775,0.606654 0,0.523696 0.41813,0.819323 0.8837,0.624794 z m 3.49605,0.70581 c -0.93439,-0.261919 -1.2557,-1.543109 -0.58001,-2.312686 0.32259,-0.367407 0.89454,-0.481291 1.33497,-0.26581 0.12479,0.06106 0.23899,0.11101 0.25378,0.11101 0.0148,0 0.0269,-0.250793 0.0269,-0.557318 0,-0.641941 -0.0194,-0.615605 0.4358,-0.592219 l 0.24632,0.01266 v 1.777669 1.777669 l -0.31803,0.01203 c -0.28205,0.01067 -0.32301,0.0027 -0.36204,-0.07021 -0.0434,-0.08118 -0.0465,-0.08096 -0.24007,0.01765 -0.24358,0.124093 -0.55119,0.158632 -0.79761,0.08956 z m 0.75046,-0.742317 c 0.36876,-0.246349 0.3848,-0.89941 0.0285,-1.160581 -0.1667,-0.12219 -0.51309,-0.137292 -0.68422,-0.02983 -0.20842,0.13087 -0.29904,0.313343 -0.29904,0.602126 0,0.289579 0.0915,0.473161 0.29904,0.599669 0.18741,0.114267 0.47511,0.109273 0.65572,-0.01138 z m -18.59978,0.661532 c -0.0514,-0.06198 0.49701,-3.310625 0.57472,-3.404262 0.0321,-0.03865 0.13982,-0.05731 0.33094,-0.05731 0.24906,0 0.29042,0.01126 0.34158,0.09302 0.032,0.05116 0.21076,0.553572 0.39722,1.116471 0.18646,0.5629 0.35454,1.013857 0.37352,1.002128 0.019,-0.01173 0.19514,-0.503239 0.39147,-1.092243 0.22314,-0.669458 0.38063,-1.079999 0.4201,-1.095145 0.1198,-0.04597 0.58252,-0.02566 0.62544,0.02745 0.023,0.02842 0.16524,0.793342 0.31617,1.699822 0.21025,1.262769 0.26332,1.661515 0.22696,1.705322 -0.0609,0.07339 -0.53373,0.07756 -0.62291,0.0055 -0.0436,-0.0352 -0.10667,-0.308644 -0.19798,-0.857829 -0.16131,-0.970119 -0.16939,-1.007456 -0.2087,-0.964208 -0.017,0.01872 -0.1645,0.437058 -0.32774,0.929644 -0.18364,0.554142 -0.32088,0.904849 -0.35995,0.91984 -0.0347,0.01333 -0.17281,0.02423 -0.30685,0.02423 -0.20793,0 -0.25226,-0.01366 -0.30192,-0.09302 -0.032,-0.05116 -0.18282,-0.469739 -0.33512,-0.930176 -0.1523,-0.460437 -0.29067,-0.837158 -0.30749,-0.837158 -0.0168,0 -0.0993,0.393844 -0.18338,0.875208 -0.084,0.481365 -0.17333,0.899944 -0.19842,0.930176 -0.0608,0.07328 -0.58724,0.07534 -0.64766,0.0025 z m 7.56574,0.0028 c -0.0708,-0.07083 -0.0708,-2.434438 0,-2.505273 0.028,-0.02802 0.16225,-0.04961 0.30845,-0.04961 0.20684,0 0.27454,0.01685 0.33699,0.08389 l 0.0781,0.08389 0.22013,-0.114205 c 0.37864,-0.196444 0.77517,-0.142667 1.08775,0.147519 0.24415,0.226656 0.25347,0.272494 0.26837,1.320255 0.0101,0.707473 4.9e-4,0.97916 -0.0361,1.023194 -0.0626,0.07544 -0.5782,0.08363 -0.65148,0.01034 -0.035,-0.03504 -0.0496,-0.276074 -0.0496,-0.820654 0,-0.797988 -0.0316,-1.001184 -0.167,-1.073643 -0.11384,-0.06093 -0.34035,-0.04866 -0.44416,0.02405 -0.20183,0.141371 -0.2333,0.276549 -0.24963,1.07236 -0.009,0.423942 -0.0335,0.766377 -0.0577,0.795817 -0.0556,0.0677 -0.57687,0.06937 -0.64418,0.0021 z m 2.78521,-0.01535 c -0.056,-0.056 -0.065,-0.22666 -0.065,-1.237281 0,-1.010621 0.009,-1.181278 0.065,-1.237282 0.0794,-0.07937 0.55398,-0.09094 0.62957,-0.01535 0.0708,0.07084 0.0708,2.434439 0,2.505273 -0.0756,0.07559 -0.5502,0.06401 -0.62957,-0.01535 z m 1.15755,0 c -0.0552,-0.0552 -0.065,-0.204379 -0.065,-0.992188 0,-0.86532 -0.005,-0.927222 -0.0744,-0.927222 -0.12399,0 -0.17364,-0.08866 -0.17364,-0.310059 0,-0.221404 0.0497,-0.310058 0.17364,-0.310058 0.0643,0 0.0744,-0.03792 0.0745,-0.279053 1.3e-4,-0.478718 0.2253,-0.754476 0.61611,-0.754476 0.22827,0 0.46097,0.06134 0.50684,0.133603 0.053,0.08357 0.0403,0.436646 -0.0171,0.473262 -0.0284,0.01813 -0.11679,0.03318 -0.19637,0.03345 -0.14322,4.71e-4 -0.14483,0.0025 -0.1573,0.196847 l -0.0126,0.196371 h 0.13869 c 0.18944,0 0.23791,0.06318 0.23791,0.310058 0,0.246199 -0.0485,0.310059 -0.23564,0.310059 h -0.13643 v 0.942578 c 0,0.677995 -0.0139,0.956503 -0.0496,0.992187 -0.0756,0.07559 -0.5502,0.06401 -0.62957,-0.01535 z m 4.32547,0.01535 c -0.0651,-0.0651 -0.0716,-3.346149 -0.007,-3.467105 0.0358,-0.06696 0.0883,-0.07996 0.32246,-0.07996 0.16239,0 0.30046,0.0208 0.32927,0.04961 0.0713,0.0713 0.0713,3.426161 0,3.497461 -0.0653,0.06534 -0.57958,0.06534 -0.64492,0 z m -5.44876,-2.819466 c -0.11523,-0.11523 -0.14056,-0.171849 -0.14056,-0.314192 0,-0.237876 0.20702,-0.454753 0.43408,-0.454753 0.22706,0 0.43408,0.216877 0.43408,0.454753 0,0.237875 -0.20702,0.454752 -0.43408,0.454752 -0.11884,0 -0.18432,-0.03136 -0.29352,-0.14056 z m -7.48948,-4.955722 c -2.05178,-2.052613 -3.73051,-3.759042 -3.73051,-3.792064 0,-0.08027 7.4435,-7.524088 7.52377,-7.524088 0.0345,0 0.73229,0.669726 1.55061,1.488281 0.81832,0.818555 1.50665,1.488281 1.52962,1.488281 0.023,0 0.71131,-0.669726 1.52963,-1.488281 0.81831,-0.818555 1.5027,-1.488281 1.52086,-1.488281 0.0387,0 7.48429,7.470665 7.5066,7.531881 0.0209,0.0573 -4.42174,4.498392 -4.49994,4.498392 -0.0347,0 -0.73264,-0.669727 -1.55096,-1.488281 -0.81832,-0.818555 -1.50655,-1.488394 -1.52941,-1.488533 -0.0229,-1.24e-4 -1.38456,1.348618 -3.02601,2.997233 -1.64145,1.648617 -3.00905,2.997484 -3.03911,2.997484 -0.0301,0 -1.73338,-1.67941 -3.78515,-3.732024 z m 4.50714,-0.06144 c 0.40336,-0.403823 0.73338,-0.75274 0.73338,-0.775371 0,-0.02263 -0.64182,-0.682766 -1.42627,-1.466967 -0.78445,-0.784201 -1.42627,-1.444179 -1.42627,-1.466618 0,-0.02244 0.65544,-0.697193 1.45652,-1.499454 l 1.45653,-1.458657 -0.77439,-0.774392 -0.7744,-0.774393 -2.23242,2.232138 c -1.22784,1.227676 -2.23243,2.249431 -2.23243,2.270567 0,0.05345 4.38968,4.447372 4.44308,4.447372 0.0238,0 0.37332,-0.330401 0.77667,-0.734225 z m 9.11486,-2.955029 c 0.39247,-0.391981 0.71357,-0.731431 0.71357,-0.754333 0,-0.05443 -4.38975,-4.444759 -4.44417,-4.444759 -0.0229,0 -1.04547,1.003971 -2.27239,2.231047 l -2.23076,2.231048 0.67897,0.683503 c 0.37344,0.375927 0.69798,0.683503 0.7212,0.683503 0.0232,0 0.70637,-0.663212 1.51812,-1.473805 l 1.4759,-1.473805 0.19917,0.168853 c 0.10955,0.09287 0.80368,0.774685 1.54252,1.515146 0.73885,0.740462 1.35257,1.346293 1.36383,1.346293 0.0113,0 0.34158,-0.320711 0.73404,-0.712691 z"
         id="path165"
         inkscape:connector-curvature="0" />
      <path
         style="fill:#a0ccf3;stroke-width:0.04134114"
         d="m -520.04506,46.54621 c -0.52152,-0.126963 -0.88917,-0.634825 -0.89903,-1.241903 -0.005,-0.327956 0.0516,-0.539933 0.21389,-0.795769 0.31435,-0.495666 0.98233,-0.667516 1.47798,-0.380231 0.2104,0.121951 0.24819,0.124039 0.2826,0.01562 0.024,-0.0757 0.0555,-0.08323 0.30251,-0.07235 l 0.27569,0.01215 v 1.198894 1.198893 l -0.2824,0.0123 c -0.25522,0.01112 -0.28455,0.0042 -0.30455,-0.07235 -0.0274,-0.104947 -0.0725,-0.106357 -0.21282,-0.0067 -0.21024,0.149425 -0.55923,0.20313 -0.85387,0.1314 z m 0.79586,-0.65074 c 0.19259,-0.143808 0.26867,-0.317359 0.26867,-0.612849 0,-0.372853 -0.12271,-0.571046 -0.43411,-0.701159 -0.23885,-0.0998 -0.56545,-0.02445 -0.74263,0.17134 -0.10798,0.119318 -0.19785,0.364781 -0.19785,0.540402 0,0.192798 0.14762,0.494054 0.29446,0.600924 0.23699,0.172472 0.58152,0.173043 0.81146,0.0013 z m 7.69407,0.662616 c -0.33735,-0.05926 -0.80402,-0.505572 -0.90472,-0.865246 -0.07,-0.250065 -0.0357,-0.784834 0.0635,-0.988995 0.10917,-0.224699 0.37218,-0.479477 0.62058,-0.601149 0.28757,-0.140863 0.81692,-0.141941 1.10422,-0.0022 0.24326,0.118275 0.49458,0.358386 0.61898,0.591356 0.0806,0.150948 0.0947,0.239058 0.0947,0.590817 0,0.349917 -0.0143,0.44022 -0.0933,0.587962 -0.24001,0.449159 -0.60224,0.678737 -1.09848,0.696213 -0.16309,0.0057 -0.34559,0.0018 -0.40556,-0.0087 z m 0.61272,-0.590999 c 0.26189,-0.118901 0.39433,-0.346036 0.39433,-0.676276 0,-0.405692 -0.14333,-0.608372 -0.51562,-0.729128 -0.28034,-0.09093 -0.64433,0.08947 -0.77905,0.386119 -0.0942,0.20733 -0.0995,0.432449 -0.0152,0.634357 0.0857,0.205005 0.1738,0.297199 0.3705,0.387521 0.20959,0.09625 0.32858,0.09568 0.54503,-0.0026 z m 3.44655,0.569411 c -0.0784,-0.0225 -0.22188,-0.0979 -0.31887,-0.16755 -0.56269,-0.404097 -0.69783,-1.271836 -0.29251,-1.878314 0.32876,-0.491929 0.96187,-0.648013 1.46407,-0.360946 0.095,0.0543 0.19214,0.09873 0.21588,0.09873 0.0273,0 0.0474,-0.208516 0.0547,-0.56844 l 0.0115,-0.568441 h 0.28939 0.28938 v 1.694987 1.694987 l -0.28241,0.0123 c -0.25521,0.01112 -0.28454,0.0042 -0.30454,-0.07235 -0.0274,-0.104947 -0.0725,-0.106357 -0.21282,-0.0067 -0.2214,0.157355 -0.60943,0.209032 -0.91372,0.121688 z m 0.79946,-0.604862 c 0.25786,-0.151047 0.38128,-0.475465 0.31559,-0.8296 -0.0987,-0.532071 -0.72643,-0.746303 -1.13187,-0.386279 -0.11689,0.103795 -0.23144,0.378664 -0.23248,0.557856 -10e-4,0.173161 0.0882,0.417884 0.19704,0.540433 0.20003,0.225274 0.57864,0.277546 0.85172,0.11759 z m -18.57832,0.553333 c 0,-0.03188 0.53739,-3.144388 0.55944,-3.240186 0.0206,-0.08954 0.0384,-0.09413 0.3203,-0.08268 l 0.29849,0.01212 0.37207,1.106852 c 0.26945,0.801586 0.38823,1.103732 0.43065,1.09554 0.037,-0.0071 0.19454,-0.419184 0.4272,-1.117187 l 0.3686,-1.105875 h 0.30661 c 0.16864,0 0.30662,0.01017 0.30662,0.02259 0,0.01243 0.12092,0.7464 0.26872,1.631052 0.14779,0.884653 0.26871,1.627929 0.26871,1.651724 0,0.02591 -0.11344,0.04326 -0.28278,0.04326 h -0.28279 l -0.13216,-0.775146 c -0.0727,-0.426331 -0.1459,-0.858702 -0.16271,-0.960824 -0.0627,-0.381076 -0.13225,-0.270105 -0.47941,0.765068 l -0.32673,0.974264 -0.28994,-0.01202 -0.28994,-0.01202 -0.31337,-0.938786 c -0.29728,-0.890562 -0.3785,-1.078879 -0.42964,-0.996137 -0.0122,0.01979 -0.08,0.37023 -0.15065,0.778749 -0.0706,0.408519 -0.14775,0.840431 -0.17139,0.959803 l -0.043,0.217041 h -0.28646 c -0.15755,0 -0.28646,-0.0077 -0.28646,-0.01722 z m 7.56543,-1.202348 v -1.219564 h 0.28939 c 0.26183,0 0.28939,0.0079 0.28939,0.08268 0,0.104107 0.0975,0.106657 0.24166,0.0063 0.38389,-0.267129 0.89177,-0.212375 1.19098,0.128396 0.17964,0.204604 0.2269,0.529116 0.21216,1.456915 l -0.0118,0.744141 h -0.30692 -0.30693 l 0.003,-0.763342 c 0.004,-0.869007 -0.035,-1.047579 -0.24716,-1.136766 -0.17305,-0.07276 -0.4397,-0.01554 -0.55563,0.119234 -0.16588,0.192837 -0.21965,0.478855 -0.21965,1.16826 v 0.633284 h -0.28939 -0.28939 z m 2.76986,0 v -1.219564 h 0.28939 0.28939 v 1.219564 1.219563 h -0.28939 -0.28939 z m 1.15755,0.276985 c 0,-0.976621 -0.0109,-1.041797 -0.17363,-1.041797 -0.0626,0 -0.0744,-0.03598 -0.0744,-0.227376 0,-0.194872 0.0111,-0.227376 0.0776,-0.227376 0.12635,0 0.1789,-0.105484 0.1692,-0.339677 -0.0151,-0.364382 -0.004,-0.407475 0.14178,-0.553292 0.13052,-0.13052 0.15931,-0.140519 0.40308,-0.139995 0.42888,9.21e-4 0.44855,0.01304 0.44855,0.276259 v 0.22584 l -0.12133,-0.02665 c -0.15658,-0.03439 -0.29208,0.09125 -0.29208,0.270844 0,0.203692 0.0662,0.28667 0.22883,0.28667 h 0.14324 v 0.227376 0.227376 h -0.14324 c -0.0993,0 -0.15637,0.02453 -0.18604,0.07997 -0.0258,0.04819 -0.0428,0.442428 -0.0428,0.992187 v 0.912223 h -0.28939 -0.28939 z m 4.34082,-0.773079 v -1.715658 h 0.28939 0.28939 v 1.715658 1.715657 h -0.28939 -0.28939 z m -5.27099,-1.00111 c -0.23699,-0.05733 -0.36822,-0.358144 -0.25324,-0.580492 0.0742,-0.14339 0.13852,-0.175397 0.35276,-0.175397 0.23058,0 0.34332,0.136898 0.32669,0.396664 -0.0112,0.17493 -0.0304,0.211887 -0.15327,0.294429 -0.0773,0.05191 -0.15168,0.09223 -0.16537,0.08959 -0.0137,-0.0026 -0.0621,-0.0138 -0.10757,-0.0248 z m -7.70221,-5.036792 c -2.05341,-2.059979 -3.72715,-3.757988 -3.71942,-3.773353 0.008,-0.01537 1.70175,-1.711439 3.76451,-3.769051 l 3.75048,-3.741113 1.52392,1.523505 c 1.33117,1.330799 1.53379,1.518034 1.60192,1.480253 0.0429,-0.02379 0.72902,-0.69553 1.52472,-1.492759 0.79569,-0.797229 1.4675,-1.449508 1.49291,-1.449508 0.0254,0 1.72374,1.686863 3.77408,3.748584 l 3.7279,3.748585 -2.22269,2.225211 c -1.22248,1.223866 -2.25109,2.225211 -2.2858,2.225211 -0.0347,0 -0.73264,-0.669727 -1.55096,-1.488281 -0.81832,-0.818555 -1.5066,-1.488282 -1.52952,-1.488282 -0.0229,0 -1.39032,1.348755 -3.03868,2.997233 -1.64836,1.648479 -3.01567,2.997672 -3.03847,2.998207 -0.0228,5.38e-4 -1.7215,-1.684463 -3.7749,-3.744442 z m 4.5296,-0.07057 0.75397,-0.754793 -1.42618,-1.425728 c -0.7844,-0.784151 -1.42618,-1.444533 -1.42618,-1.467516 0,-0.02298 0.65112,-0.692711 1.44694,-1.488284 0.79582,-0.795574 1.44694,-1.474319 1.44694,-1.508323 0,-0.08124 -1.48949,-1.571593 -1.57069,-1.571593 -0.0679,0 -4.50646,4.417961 -4.50646,4.485514 0,0.05423 4.43156,4.485515 4.48579,4.485515 0.0231,0 0.38119,-0.339657 0.79587,-0.754792 z m 9.11498,-2.955145 c 0.40382,-0.403356 0.73422,-0.752405 0.73422,-0.775665 0,-0.05417 -4.43237,-4.485427 -4.48655,-4.485427 -0.0223,0 -1.05428,1.013821 -2.29324,2.252936 l -2.25265,2.252935 0.70204,0.702956 c 0.38613,0.386627 0.72096,0.702957 0.74407,0.702957 0.0231,0 0.69294,-0.651123 1.48851,-1.44694 0.88578,-0.886052 1.47694,-1.44694 1.52502,-1.44694 0.048,0 0.65829,0.577814 1.57118,1.487615 0.82097,0.818188 1.50178,1.487914 1.51292,1.488281 0.0111,3.72e-4 0.35065,-0.329352 0.75448,-0.732708 z"
         id="path163"
         inkscape:connector-curvature="0" />
      <path
         style="fill:#a6b8c7;stroke-width:0.04134114"
         d="m -520.04506,46.54621 c -0.52152,-0.126963 -0.88917,-0.634825 -0.89903,-1.241903 -0.005,-0.327956 0.0516,-0.539933 0.21389,-0.795769 0.31435,-0.495666 0.98233,-0.667516 1.47798,-0.380231 0.2104,0.121951 0.24819,0.124039 0.2826,0.01562 0.024,-0.0757 0.0555,-0.08323 0.30251,-0.07235 l 0.27569,0.01215 v 1.198894 1.198893 l -0.2824,0.0123 c -0.25522,0.01112 -0.28455,0.0042 -0.30455,-0.07235 -0.0274,-0.104947 -0.0725,-0.106357 -0.21282,-0.0067 -0.21024,0.149425 -0.55923,0.20313 -0.85387,0.1314 z m 0.79586,-0.65074 c 0.19259,-0.143808 0.26867,-0.317359 0.26867,-0.612849 0,-0.372853 -0.12271,-0.571046 -0.43411,-0.701159 -0.23885,-0.0998 -0.56545,-0.02445 -0.74263,0.17134 -0.10798,0.119318 -0.19785,0.364781 -0.19785,0.540402 0,0.192798 0.14762,0.494054 0.29446,0.600924 0.23699,0.172472 0.58152,0.173043 0.81146,0.0013 z m 7.69407,0.662616 c -0.33735,-0.05926 -0.80402,-0.505572 -0.90472,-0.865246 -0.07,-0.250065 -0.0357,-0.784834 0.0635,-0.988995 0.10917,-0.224699 0.37218,-0.479477 0.62058,-0.601149 0.28757,-0.140863 0.81692,-0.141941 1.10422,-0.0022 0.24326,0.118275 0.49458,0.358386 0.61898,0.591356 0.0806,0.150948 0.0947,0.239058 0.0947,0.590817 0,0.349917 -0.0143,0.44022 -0.0933,0.587962 -0.24001,0.449159 -0.60224,0.678737 -1.09848,0.696213 -0.16309,0.0057 -0.34559,0.0018 -0.40556,-0.0087 z m 0.61272,-0.590999 c 0.26189,-0.118901 0.39433,-0.346036 0.39433,-0.676276 0,-0.405692 -0.14333,-0.608372 -0.51562,-0.729128 -0.28034,-0.09093 -0.64433,0.08947 -0.77905,0.386119 -0.0942,0.20733 -0.0995,0.432449 -0.0152,0.634357 0.0857,0.205005 0.1738,0.297199 0.3705,0.387521 0.20959,0.09625 0.32858,0.09568 0.54503,-0.0026 z m 3.44655,0.569411 c -0.0784,-0.0225 -0.22188,-0.0979 -0.31887,-0.16755 -0.56269,-0.404097 -0.69783,-1.271836 -0.29251,-1.878314 0.32876,-0.491929 0.96187,-0.648013 1.46407,-0.360946 0.095,0.0543 0.19214,0.09873 0.21588,0.09873 0.0273,0 0.0474,-0.208516 0.0547,-0.56844 l 0.0115,-0.568441 h 0.28939 0.28938 v 1.694987 1.694987 l -0.28241,0.0123 c -0.25521,0.01112 -0.28454,0.0042 -0.30454,-0.07235 -0.0274,-0.104947 -0.0725,-0.106357 -0.21282,-0.0067 -0.2214,0.157355 -0.60943,0.209032 -0.91372,0.121688 z m 0.79946,-0.604862 c 0.25786,-0.151047 0.38128,-0.475465 0.31559,-0.8296 -0.0987,-0.532071 -0.72643,-0.746303 -1.13187,-0.386279 -0.11689,0.103795 -0.23144,0.378664 -0.23248,0.557856 -10e-4,0.173161 0.0882,0.417884 0.19704,0.540433 0.20003,0.225274 0.57864,0.277546 0.85172,0.11759 z m -18.57832,0.553333 c 0,-0.03188 0.53739,-3.144388 0.55944,-3.240186 0.0206,-0.08954 0.0384,-0.09413 0.3203,-0.08268 l 0.29849,0.01212 0.37207,1.106852 c 0.26945,0.801586 0.38823,1.103732 0.43065,1.09554 0.037,-0.0071 0.19454,-0.419184 0.4272,-1.117187 l 0.3686,-1.105875 h 0.30661 c 0.16864,0 0.30662,0.01017 0.30662,0.02259 0,0.01243 0.12092,0.7464 0.26872,1.631052 0.14779,0.884653 0.26871,1.627929 0.26871,1.651724 0,0.02591 -0.11344,0.04326 -0.28278,0.04326 h -0.28279 l -0.13216,-0.775146 c -0.0727,-0.426331 -0.1459,-0.858702 -0.16271,-0.960824 -0.0627,-0.381076 -0.13225,-0.270105 -0.47941,0.765068 l -0.32673,0.974264 -0.28994,-0.01202 -0.28994,-0.01202 -0.31337,-0.938786 c -0.29728,-0.890562 -0.3785,-1.078879 -0.42964,-0.996137 -0.0122,0.01979 -0.08,0.37023 -0.15065,0.778749 -0.0706,0.408519 -0.14775,0.840431 -0.17139,0.959803 l -0.043,0.217041 h -0.28646 c -0.15755,0 -0.28646,-0.0077 -0.28646,-0.01722 z m 7.56543,-1.202348 v -1.219564 h 0.28939 c 0.26183,0 0.28939,0.0079 0.28939,0.08268 0,0.104107 0.0975,0.106657 0.24166,0.0063 0.38389,-0.267129 0.89177,-0.212375 1.19098,0.128396 0.17964,0.204604 0.2269,0.529116 0.21216,1.456915 l -0.0118,0.744141 h -0.30692 -0.30693 l 0.003,-0.763342 c 0.004,-0.869007 -0.035,-1.047579 -0.24716,-1.136766 -0.17305,-0.07276 -0.4397,-0.01554 -0.55563,0.119234 -0.16588,0.192837 -0.21965,0.478855 -0.21965,1.16826 v 0.633284 h -0.28939 -0.28939 z m 2.76986,0 v -1.219564 h 0.28939 0.28939 v 1.219564 1.219563 h -0.28939 -0.28939 z m 1.15755,0.276985 c 0,-0.976621 -0.0109,-1.041797 -0.17363,-1.041797 -0.0626,0 -0.0744,-0.03598 -0.0744,-0.227376 0,-0.194872 0.0111,-0.227376 0.0776,-0.227376 0.12635,0 0.1789,-0.105484 0.1692,-0.339677 -0.0151,-0.364382 -0.004,-0.407475 0.14178,-0.553292 0.13052,-0.13052 0.15931,-0.140519 0.40308,-0.139995 0.42888,9.21e-4 0.44855,0.01304 0.44855,0.276259 v 0.22584 l -0.12133,-0.02665 c -0.15658,-0.03439 -0.29208,0.09125 -0.29208,0.270844 0,0.203692 0.0662,0.28667 0.22883,0.28667 h 0.14324 v 0.227376 0.227376 h -0.14324 c -0.0993,0 -0.15637,0.02453 -0.18604,0.07997 -0.0258,0.04819 -0.0428,0.442428 -0.0428,0.992187 v 0.912223 h -0.28939 -0.28939 z m 4.34082,-0.773079 v -1.715658 h 0.28939 0.28939 v 1.715658 1.715657 h -0.28939 -0.28939 z m -5.27099,-1.00111 c -0.23699,-0.05733 -0.36822,-0.358144 -0.25324,-0.580492 0.0742,-0.14339 0.13852,-0.175397 0.35276,-0.175397 0.23058,0 0.34332,0.136898 0.32669,0.396664 -0.0112,0.17493 -0.0304,0.211887 -0.15327,0.294429 -0.0773,0.05191 -0.15168,0.09223 -0.16537,0.08959 -0.0137,-0.0026 -0.0621,-0.0138 -0.10757,-0.0248 z m -7.59078,-5.039332 c -2.00971,-2.01483 -3.67877,-3.689317 -3.70902,-3.721083 -0.0303,-0.03177 -0.0745,-0.0457 -0.0984,-0.03095 -0.0239,0.01474 -0.0357,0.01026 -0.0264,-0.01 0.009,-0.02022 1.70469,-1.720262 3.76745,-3.777874 l 3.75048,-3.741113 1.52392,1.523505 c 1.33117,1.330799 1.53379,1.518034 1.60192,1.480253 0.0429,-0.02379 0.72902,-0.69553 1.52472,-1.492759 0.79569,-0.797229 1.4675,-1.449508 1.49291,-1.449508 0.0752,0 7.4929,7.48164 7.44625,7.510471 -0.0235,0.01452 -0.0319,0.0096 -0.0186,-0.011 0.0132,-0.02057 -0.96483,0.953244 -2.17347,2.164023 -1.20863,1.210778 -2.22592,2.201416 -2.26063,2.201416 -0.0347,0 -0.73265,-0.669727 -1.55097,-1.488282 -0.81832,-0.818554 -1.5066,-1.488281 -1.52952,-1.488281 -0.0229,0 -1.39032,1.348755 -3.03868,2.997233 -1.64836,1.648478 -3.00847,2.997233 -3.02247,2.997233 -0.014,0 -1.66977,-1.648497 -3.67947,-3.663326 z m 4.45368,-8.19e-4 c 0.41799,-0.423644 0.75998,-0.790472 0.75998,-0.815172 0,-0.0247 -0.64182,-0.688446 -1.42627,-1.474991 -0.78445,-0.786544 -1.42627,-1.447661 -1.42627,-1.469149 0,-0.02149 0.64182,-0.680688 1.42627,-1.464889 0.78445,-0.784201 1.42627,-1.453643 1.42627,-1.487648 0,-0.08148 -1.48961,-1.571597 -1.57106,-1.571597 -0.0676,0 -4.54743,4.46028 -4.54743,4.527601 0,0.06325 4.47841,4.52611 4.54188,4.52611 0.0312,0 0.39864,-0.346619 0.81663,-0.770264 z m 9.10538,-2.965594 c 0.65757,-0.658288 0.75274,-0.769654 0.7154,-0.837158 -0.061,-0.110344 -4.44437,-4.480694 -4.49402,-4.480694 -0.0225,0 -1.06361,1.023293 -2.31353,2.273984 l -2.27259,2.273984 0.72236,0.723249 c 0.3973,0.397787 0.74083,0.723249 0.76339,0.723249 0.0226,0 0.70526,-0.663289 1.5171,-1.473977 l 1.47608,-1.473977 0.24034,0.210364 c 0.13218,0.115699 0.82624,0.797593 1.54234,1.515318 0.7161,0.717725 1.3116,1.304955 1.32333,1.304955 0.0117,0 0.36265,-0.341683 0.7798,-0.759296 z"
         id="path161"
         inkscape:connector-curvature="0" />
      <path
         style="fill:#b4b6b7;stroke-width:0.04134114"
         d="m -520.04506,46.54621 c -0.52152,-0.126963 -0.88917,-0.634825 -0.89903,-1.241903 -0.005,-0.327956 0.0516,-0.539933 0.21389,-0.795769 0.31435,-0.495666 0.98233,-0.667516 1.47798,-0.380231 0.2104,0.121951 0.24819,0.124039 0.2826,0.01562 0.024,-0.0757 0.0555,-0.08323 0.30251,-0.07235 l 0.27569,0.01215 v 1.198894 1.198893 l -0.2824,0.0123 c -0.25522,0.01112 -0.28455,0.0042 -0.30455,-0.07235 -0.0274,-0.104947 -0.0725,-0.106357 -0.21282,-0.0067 -0.21024,0.149425 -0.55923,0.20313 -0.85387,0.1314 z m 0.79586,-0.65074 c 0.19259,-0.143808 0.26867,-0.317359 0.26867,-0.612849 0,-0.372853 -0.12271,-0.571046 -0.43411,-0.701159 -0.23885,-0.0998 -0.56545,-0.02445 -0.74263,0.17134 -0.10798,0.119318 -0.19785,0.364781 -0.19785,0.540402 0,0.192798 0.14762,0.494054 0.29446,0.600924 0.23699,0.172472 0.58152,0.173043 0.81146,0.0013 z m 7.69407,0.662616 c -0.33735,-0.05926 -0.80402,-0.505572 -0.90472,-0.865246 -0.07,-0.250065 -0.0357,-0.784834 0.0635,-0.988995 0.10917,-0.224699 0.37218,-0.479477 0.62058,-0.601149 0.28757,-0.140863 0.81692,-0.141941 1.10422,-0.0022 0.24326,0.118275 0.49458,0.358386 0.61898,0.591356 0.0806,0.150948 0.0947,0.239058 0.0947,0.590817 0,0.349917 -0.0143,0.44022 -0.0933,0.587962 -0.24001,0.449159 -0.60224,0.678737 -1.09848,0.696213 -0.16309,0.0057 -0.34559,0.0018 -0.40556,-0.0087 z m 0.61272,-0.590999 c 0.26189,-0.118901 0.39433,-0.346036 0.39433,-0.676276 0,-0.405692 -0.14333,-0.608372 -0.51562,-0.729128 -0.28034,-0.09093 -0.64433,0.08947 -0.77905,0.386119 -0.0942,0.20733 -0.0995,0.432449 -0.0152,0.634357 0.0857,0.205005 0.1738,0.297199 0.3705,0.387521 0.20959,0.09625 0.32858,0.09568 0.54503,-0.0026 z m 3.44655,0.569411 c -0.0784,-0.0225 -0.22188,-0.0979 -0.31887,-0.16755 -0.56269,-0.404097 -0.69783,-1.271836 -0.29251,-1.878314 0.32876,-0.491929 0.96187,-0.648013 1.46407,-0.360946 0.095,0.0543 0.19214,0.09873 0.21588,0.09873 0.0273,0 0.0474,-0.208516 0.0547,-0.56844 l 0.0115,-0.568441 h 0.28939 0.28938 v 1.694987 1.694987 l -0.28241,0.0123 c -0.25521,0.01112 -0.28454,0.0042 -0.30454,-0.07235 -0.0274,-0.104947 -0.0725,-0.106357 -0.21282,-0.0067 -0.2214,0.157355 -0.60943,0.209032 -0.91372,0.121688 z m 0.79946,-0.604862 c 0.25786,-0.151047 0.38128,-0.475465 0.31559,-0.8296 -0.0987,-0.532071 -0.72643,-0.746303 -1.13187,-0.386279 -0.11689,0.103795 -0.23144,0.378664 -0.23248,0.557856 -10e-4,0.173161 0.0882,0.417884 0.19704,0.540433 0.20003,0.225274 0.57864,0.277546 0.85172,0.11759 z m -18.57832,0.553333 c 0,-0.03188 0.53739,-3.144388 0.55944,-3.240186 0.0206,-0.08954 0.0384,-0.09413 0.3203,-0.08268 l 0.29849,0.01212 0.37207,1.106852 c 0.26945,0.801586 0.38823,1.103732 0.43065,1.09554 0.037,-0.0071 0.19454,-0.419184 0.4272,-1.117187 l 0.3686,-1.105875 h 0.30661 c 0.16864,0 0.30662,0.01017 0.30662,0.02259 0,0.01243 0.12092,0.7464 0.26872,1.631052 0.14779,0.884653 0.26871,1.627929 0.26871,1.651724 0,0.02591 -0.11344,0.04326 -0.28278,0.04326 h -0.28279 l -0.13216,-0.775146 c -0.0727,-0.426331 -0.1459,-0.858702 -0.16271,-0.960824 -0.0627,-0.381076 -0.13225,-0.270105 -0.47941,0.765068 l -0.32673,0.974264 -0.28994,-0.01202 -0.28994,-0.01202 -0.31337,-0.938786 c -0.29728,-0.890562 -0.3785,-1.078879 -0.42964,-0.996137 -0.0122,0.01979 -0.08,0.37023 -0.15065,0.778749 -0.0706,0.408519 -0.14775,0.840431 -0.17139,0.959803 l -0.043,0.217041 h -0.28646 c -0.15755,0 -0.28646,-0.0077 -0.28646,-0.01722 z m 7.56543,-1.202348 v -1.219564 h 0.28939 c 0.26183,0 0.28939,0.0079 0.28939,0.08268 0,0.104107 0.0975,0.106657 0.24166,0.0063 0.38389,-0.267129 0.89177,-0.212375 1.19098,0.128396 0.17964,0.204604 0.2269,0.529116 0.21216,1.456915 l -0.0118,0.744141 h -0.30692 -0.30693 l 0.003,-0.763342 c 0.004,-0.869007 -0.035,-1.047579 -0.24716,-1.136766 -0.17305,-0.07276 -0.4397,-0.01554 -0.55563,0.119234 -0.16588,0.192837 -0.21965,0.478855 -0.21965,1.16826 v 0.633284 h -0.28939 -0.28939 z m 2.76986,0 v -1.219564 h 0.28939 0.28939 v 1.219564 1.219563 h -0.28939 -0.28939 z m 1.15755,0.276985 c 0,-0.976621 -0.0109,-1.041797 -0.17363,-1.041797 -0.0626,0 -0.0744,-0.03598 -0.0744,-0.227376 0,-0.194872 0.0111,-0.227376 0.0776,-0.227376 0.12635,0 0.1789,-0.105484 0.1692,-0.339677 -0.0151,-0.364382 -0.004,-0.407475 0.14178,-0.553292 0.13052,-0.13052 0.15931,-0.140519 0.40308,-0.139995 0.42888,9.21e-4 0.44855,0.01304 0.44855,0.276259 v 0.22584 l -0.12133,-0.02665 c -0.15658,-0.03439 -0.29208,0.09125 -0.29208,0.270844 0,0.203692 0.0662,0.28667 0.22883,0.28667 h 0.14324 v 0.227376 0.227376 h -0.14324 c -0.0993,0 -0.15637,0.02453 -0.18604,0.07997 -0.0258,0.04819 -0.0428,0.442428 -0.0428,0.992187 v 0.912223 h -0.28939 -0.28939 z m 4.34082,-0.773079 v -1.715658 h 0.28939 0.28939 v 1.715658 1.715657 h -0.28939 -0.28939 z m -5.27099,-1.00111 c -0.23699,-0.05733 -0.36822,-0.358144 -0.25324,-0.580492 0.0742,-0.14339 0.13852,-0.175397 0.35276,-0.175397 0.23058,0 0.34332,0.136898 0.32669,0.396664 -0.0112,0.17493 -0.0304,0.211887 -0.15327,0.294429 -0.0773,0.05191 -0.15168,0.09223 -0.16537,0.08959 -0.0137,-0.0026 -0.0621,-0.0138 -0.10757,-0.0248 z m -7.59078,-5.036266 c -2.00971,-2.013143 -3.66022,-3.678157 -3.6678,-3.700032 -0.009,-0.02495 0.49986,-0.03977 1.3644,-0.03977 h 1.37819 l 2.2528,2.253093 c 1.23905,1.2392 2.2783,2.253092 2.30946,2.253092 0.0665,0 1.57661,-1.519062 1.57661,-1.585962 0,-0.02499 -0.63717,-0.687611 -1.41593,-1.472494 l -1.41594,-1.427058 1.40462,-0.0109 1.40462,-0.0109 0.72487,0.724031 c 0.39868,0.398217 0.74338,0.724031 0.76602,0.724031 0.0226,0 0.68286,-0.642977 1.46719,-1.428839 0.78432,-0.785861 1.4596,-1.447477 1.50062,-1.470257 0.0636,-0.03531 0.29989,0.182696 1.60311,1.478966 l 1.52853,1.520385 0.77441,-0.773597 0.7744,-0.773598 h 1.43621 c 0.78991,0 1.4362,0.01402 1.4362,0.03115 0,0.06067 -4.32141,4.351008 -4.38252,4.351008 -0.0341,0 -0.73161,-0.669727 -1.54993,-1.488282 -0.81832,-0.818554 -1.5066,-1.488281 -1.52952,-1.488281 -0.0229,0 -1.39032,1.348755 -3.03868,2.997233 -1.64836,1.648478 -3.00847,2.997233 -3.02247,2.997233 -0.014,0 -1.66977,-1.647117 -3.67947,-3.66026 z m -3.82486,-3.801817 c 0.005,0 1.69602,-1.683501 3.75869,-3.741113 l 3.75031,-3.741113 1.52392,1.523505 c 1.33117,1.330799 1.53379,1.518034 1.60192,1.480253 0.0429,-0.02379 0.72902,-0.69553 1.52472,-1.492759 0.79569,-0.797229 1.46764,-1.449508 1.49322,-1.449508 0.0256,0 1.6973,1.660364 3.71493,3.689697 l 3.66842,3.689697 -1.46057,0.01087 -1.46056,0.01087 -2.23436,-2.232962 c -1.2289,-1.228128 -2.25262,-2.232961 -2.27495,-2.232961 -0.0223,0 -1.04506,1.00459 -2.27274,2.232422 l -2.23213,2.232422 h -1.44686 -1.44686 l 1.41571,-1.416156 c 0.77864,-0.778885 1.41571,-1.44415 1.41571,-1.478365 0,-0.08072 -1.49046,-1.570323 -1.57123,-1.570323 -0.0338,0 -1.06612,1.004107 -2.29403,2.231348 l -2.23256,2.231348 -1.47454,0.01141 c -0.81101,0.0063 -1.47078,0.01141 -1.46616,0.01141 z"
         id="path159"
         inkscape:connector-curvature="0" />
      <path
         style="fill:#adb0b2;stroke-width:0.04134114"
         d="m -511.48744,46.52527 c -0.42282,-0.104829 -0.70327,-0.334486 -0.88204,-0.72231 -0.0842,-0.182679 -0.1058,-0.292001 -0.10329,-0.523029 0.005,-0.49914 0.24881,-0.89246 0.69594,-1.124656 0.1751,-0.09093 0.26043,-0.107344 0.5581,-0.107344 0.29851,0 0.38328,0.0164 0.56321,0.108959 0.41471,0.213339 0.72117,0.72481 0.69929,1.167072 -0.025,0.505295 -0.40122,1.013401 -0.84909,1.146758 -0.34132,0.10163 -0.45542,0.110755 -0.68212,0.05455 z m 0.5581,-0.511742 c 0.11346,-0.04441 0.29437,-0.225046 0.36702,-0.366455 0.0656,-0.127734 0.058,-0.614929 -0.0117,-0.748911 -0.0836,-0.160653 -0.22625,-0.280837 -0.42898,-0.361385 -0.1546,-0.06143 -0.20144,-0.06348 -0.37018,-0.01624 -0.27987,0.07836 -0.48782,0.28238 -0.54938,0.538994 -0.16095,0.670904 0.38262,1.193011 0.99321,0.953996 z m -9.09505,0.493512 c -0.33863,-0.07352 -0.59217,-0.299145 -0.77199,-0.686984 -0.28149,-0.607108 -0.0397,-1.389411 0.51593,-1.669231 0.31856,-0.160429 0.78927,-0.143379 1.04372,0.0378 0.14874,0.105915 0.28865,0.105231 0.31657,-0.0015 0.0185,-0.07086 0.0564,-0.08268 0.26485,-0.08268 h 0.24322 v 1.178223 1.178222 h -0.24804 c -0.19519,0 -0.24805,-0.01349 -0.24805,-0.06331 0,-0.113028 -0.12437,-0.115005 -0.32615,-0.0052 -0.21465,0.116825 -0.5536,0.16603 -0.79006,0.114691 z m 0.75144,-0.533131 c 0.21388,-0.141058 0.2986,-0.294713 0.31637,-0.573844 0.0239,-0.374585 -0.0146,-0.518062 -0.18431,-0.687775 -0.21925,-0.219247 -0.56361,-0.271687 -0.86013,-0.130981 -0.18844,0.08942 -0.29749,0.242017 -0.35439,0.49589 -0.0839,0.374599 0.0634,0.765105 0.34004,0.901479 0.18743,0.09238 0.59913,0.08973 0.74242,-0.0048 z m 11.83694,0.533377 c -0.3323,-0.08737 -0.57775,-0.312099 -0.75062,-0.68723 -0.221,-0.479588 -0.12009,-1.103943 0.23598,-1.460014 0.23409,-0.234087 0.41926,-0.310025 0.76332,-0.313048 0.239,-0.0021 0.32853,0.01739 0.50586,0.110109 0.37734,0.19731 0.38898,0.180545 0.3796,-0.546986 l -0.007,-0.518577 h 0.24242 0.24242 l 0.0108,1.684652 0.0108,1.684651 h -0.26918 c -0.24162,0 -0.26918,-0.0085 -0.26918,-0.08268 0,-0.109458 -0.075,-0.104274 -0.29847,0.02064 -0.20074,0.112193 -0.58439,0.164411 -0.79707,0.108488 z m 0.77211,-0.533377 c 0.22063,-0.145505 0.29982,-0.294356 0.31684,-0.595534 0.0205,-0.362529 -0.006,-0.456175 -0.1828,-0.652122 -0.28271,-0.312934 -0.85548,-0.292816 -1.09128,0.03833 -0.25251,0.354619 -0.17128,0.95739 0.15929,1.18202 0.18903,0.128446 0.62212,0.143266 0.79795,0.02731 z m -18.54955,0.393917 c 0.0118,-0.05116 0.13402,-0.753443 0.27155,-1.560629 0.13753,-0.807185 0.25969,-1.500166 0.27147,-1.539957 0.0175,-0.0591 0.0697,-0.07235 0.28503,-0.07235 h 0.26363 l 0.36404,1.120845 c 0.20022,0.616465 0.38873,1.130605 0.41892,1.142535 0.0302,0.01193 0.0791,-0.0041 0.10873,-0.03564 0.0296,-0.03153 0.21576,-0.545671 0.41365,-1.142534 l 0.35979,-1.085205 h 0.26528 c 0.1459,0 0.26528,0.01097 0.26528,0.02437 0,0.0134 0.12092,0.735167 0.26871,1.603917 0.1478,0.86875 0.26872,1.592621 0.26872,1.608604 0,0.01598 -0.10963,0.02906 -0.24363,0.02906 h -0.24363 l -0.0416,-0.237711 c -0.0229,-0.130742 -0.0942,-0.560236 -0.15853,-0.954433 -0.0955,-0.58526 -0.13122,-0.724348 -0.19467,-0.758305 -0.0427,-0.02287 -0.092,-0.02591 -0.10944,-0.0067 -0.0175,0.01916 -0.17514,0.467368 -0.3504,0.996018 l -0.31866,0.961181 h -0.25758 -0.25758 l -0.32289,-0.992187 c -0.28912,-0.888443 -0.3322,-0.992188 -0.41196,-0.992188 -0.0838,0 -0.0983,0.0541 -0.24591,0.919841 -0.0863,0.505912 -0.16606,0.952396 -0.17731,0.992187 -0.0165,0.05851 -0.0675,0.07235 -0.2665,0.07235 -0.23397,0 -0.24499,-0.0046 -0.22455,-0.09302 z m 7.50416,-1.085205 v -1.178223 h 0.26872 c 0.24254,0 0.26872,0.0082 0.26872,0.08398 0,0.12964 0.0981,0.137811 0.26828,0.02234 0.3775,-0.256178 0.84398,-0.24256 1.11921,0.03267 0.21752,0.217514 0.26615,0.4747 0.26615,1.407329 v 0.810125 h -0.29129 -0.29129 l 0.006,-0.795817 c 0.006,-0.83379 -0.003,-0.903355 -0.13914,-1.054199 -0.068,-0.07553 -0.12748,-0.09302 -0.31646,-0.09302 -0.2087,0 -0.24629,0.01399 -0.36408,0.135518 -0.20318,0.209633 -0.25598,0.451911 -0.25649,1.177064 l -4.5e-4,0.630452 h -0.26872 -0.26872 z m 2.8112,0 v -1.178223 h 0.24805 0.24805 v 1.178223 1.178222 h -0.24805 -0.24805 z m 1.15755,0.235644 c 0,-0.976621 -0.0109,-1.041797 -0.17363,-1.041797 -0.0606,0 -0.0744,-0.03445 -0.0744,-0.186035 0,-0.15443 0.0132,-0.186035 0.0776,-0.186035 0.13914,0 0.1833,-0.104595 0.15389,-0.364526 -0.0291,-0.256865 0.0328,-0.479719 0.16314,-0.587906 0.10558,-0.08763 0.51047,-0.121558 0.67164,-0.05629 0.12479,0.05054 0.13531,0.06878 0.12643,0.219244 -0.009,0.154403 -0.0163,0.162806 -0.12073,0.141913 -0.17676,-0.03535 -0.27327,0.04309 -0.30384,0.246965 -0.0149,0.09926 -0.008,0.230005 0.0148,0.290538 0.0344,0.09046 0.0678,0.110061 0.18756,0.110061 0.14485,0 0.14572,0.0011 0.14572,0.183539 0,0.182249 -0.001,0.18363 -0.15503,0.196371 l -0.15503,0.01283 -0.0111,0.981852 -0.0111,0.981852 h -0.26797 -0.26797 z m 4.35069,-0.742073 0.0108,-1.684652 0.23772,-0.0124 0.23771,-0.0124 v 1.69705 1.69705 h -0.24851 -0.24851 z m -5.40975,-1.081426 c -0.30684,-0.187101 -0.18766,-0.623897 0.17023,-0.623897 0.21312,0 0.31006,0.09367 0.31006,0.299598 0,0.205617 -0.033,0.272719 -0.16832,0.342719 -0.14822,0.07665 -0.15691,0.07614 -0.31197,-0.01842 z m -7.50323,-4.945615 c -2.00971,-2.013143 -3.66022,-3.678157 -3.6678,-3.700032 -0.009,-0.02495 0.49986,-0.03977 1.3644,-0.03977 h 1.37819 l 2.2528,2.253093 c 1.23905,1.2392 2.2783,2.253092 2.30946,2.253092 0.0665,0 1.57661,-1.519062 1.57661,-1.585962 0,-0.02499 -0.63717,-0.687611 -1.41593,-1.472494 l -1.41594,-1.427058 1.40462,-0.0109 1.40462,-0.0109 0.72487,0.724031 c 0.39868,0.398217 0.74338,0.724031 0.76602,0.724031 0.0226,0 0.68286,-0.642977 1.46719,-1.428839 0.78432,-0.785861 1.4596,-1.447477 1.50062,-1.470257 0.0636,-0.03531 0.29989,0.182696 1.60311,1.478966 l 1.52853,1.520385 0.77441,-0.773597 0.7744,-0.773598 h 1.43621 c 0.78991,0 1.4362,0.01402 1.4362,0.03115 0,0.06067 -4.32141,4.351008 -4.38252,4.351008 -0.0341,0 -0.73161,-0.669727 -1.54993,-1.488282 -0.81832,-0.818554 -1.5066,-1.488281 -1.52952,-1.488281 -0.0229,0 -1.39032,1.348755 -3.03868,2.997233 -1.64836,1.648478 -3.00847,2.997233 -3.02247,2.997233 -0.014,0 -1.66977,-1.647117 -3.67947,-3.66026 z m -3.81938,-3.822487 c 0.014,-0.02274 0.0337,-0.04134 0.0438,-0.04134 0.01,0 0.0182,0.0186 0.0182,0.04134 0,0.02274 -0.0197,0.04134 -0.0438,0.04134 -0.0241,0 -0.0323,-0.0186 -0.0182,-0.04134 z m 3.78054,-3.697856 3.69768,-3.697857 0.1883,0.173473 c 0.10356,0.09541 0.77402,0.764289 1.4899,1.486397 0.71589,0.722107 1.33696,1.324143 1.38017,1.337856 0.0621,0.01973 0.39252,-0.288941 1.58203,-1.478116 l 1.50347,-1.50305 3.68958,3.689576 3.68957,3.689577 h -1.42638 -1.42638 l -2.25281,-2.253092 c -1.23904,-1.239201 -2.27517,-2.253093 -2.3025,-2.253093 -0.0273,0 -1.05989,1.014198 -2.29458,2.253775 l -2.24488,2.253774 -1.40537,-6.82e-4 -1.40538,-6.82e-4 1.41989,-1.420332 c 0.93416,-0.934462 1.41492,-1.443821 1.40537,-1.488997 -0.0208,-0.09858 -1.52504,-1.596856 -1.60318,-1.596856 -0.0359,0 -1.07902,1.013892 -2.31807,2.253093 l -2.2528,2.253092 h -1.40566 -1.40565 z"
         id="path157"
         inkscape:connector-curvature="0" />
      <path
         style="fill:#acaeb0;stroke-width:0.04134114"
         d="m -519.7841,46.515285 c 0.0299,-0.01194 0.0655,-0.01047 0.0792,0.0033 0.0137,0.01374 -0.0107,0.02351 -0.0543,0.02171 -0.0482,-0.002 -0.0579,-0.01178 -0.025,-0.02498 z m 8.47284,-10e-4 c 0.0514,-0.0099 0.12584,-0.0095 0.16536,8.35e-4 0.0395,0.01035 -0.003,0.01844 -0.0935,0.01798 -0.091,-4.59e-4 -0.12329,-0.0089 -0.0719,-0.01881 z m 4.09229,0.0019 c 0.0284,-0.01147 0.0749,-0.01147 0.10335,0 0.0284,0.01147 0.005,0.02085 -0.0517,0.02085 -0.0568,0 -0.0801,-0.0094 -0.0517,-0.02085 z m -4.33824,-0.0422 c 0.0299,-0.01194 0.0655,-0.01047 0.0792,0.0033 0.0137,0.01374 -0.0107,0.02351 -0.0543,0.02171 -0.0482,-0.002 -0.058,-0.01178 -0.025,-0.02498 z m 0.57878,0 c 0.0298,-0.01194 0.0655,-0.01047 0.0792,0.0033 0.0137,0.01374 -0.0107,0.02351 -0.0543,0.02171 -0.0482,-0.002 -0.058,-0.01178 -0.025,-0.02498 z m -10.90305,-0.07856 c 0.002,-0.04816 0.0118,-0.05796 0.025,-0.02498 0.0119,0.02984 0.0105,0.0655 -0.003,0.07924 -0.0137,0.01374 -0.0235,-0.01068 -0.0217,-0.05426 z m 4.23178,-1.112764 c 2e-5,-0.659392 0.006,-0.923354 0.0127,-0.586583 0.007,0.336771 0.007,0.876273 -4e-5,1.198893 -0.007,0.322621 -0.0127,0.04708 -0.0127,-0.61231 z m 1.61122,0.434082 c 0,-0.420647 0.006,-0.592729 0.0136,-0.382406 0.008,0.210323 0.008,0.554488 0,0.764811 -0.007,0.210323 -0.0136,0.03824 -0.0136,-0.382405 z m 0.45515,-0.124024 c 0,-0.488859 0.006,-0.688847 0.0133,-0.444417 0.007,0.244429 0.007,0.644405 0,0.888835 -0.007,0.244429 -0.0133,0.04444 -0.0133,-0.444418 z m 2.31533,-0.08268 c 0,-0.534334 0.006,-0.752926 0.0131,-0.485759 0.007,0.267168 0.007,0.70435 0,0.971517 -0.007,0.267168 -0.0131,0.04858 -0.0131,-0.485758 z m -8.65482,0.637343 c 0.002,-0.04816 0.0118,-0.05796 0.025,-0.02498 0.0119,0.02984 0.0105,0.0655 -0.003,0.07924 -0.0137,0.01374 -0.0235,-0.01068 -0.0217,-0.05426 z m 2.15681,-0.04684 c 0.0625,-0.0095 0.16485,-0.0095 0.22738,0 0.0625,0.0095 0.0114,0.01722 -0.11369,0.01722 -0.12506,0 -0.17622,-0.0077 -0.11369,-0.01722 z m 8.47494,0.0011 c 0.0398,-0.0104 0.1049,-0.0104 0.14469,0 0.0398,0.0104 0.007,0.01891 -0.0723,0.01891 -0.0796,0 -0.11213,-0.0085 -0.0723,-0.01891 z m 4.13468,-0.0012 c 0.0628,-0.0095 0.15586,-0.0092 0.2067,5.62e-4 0.0508,0.0098 -5.7e-4,0.01759 -0.11425,0.01728 -0.11369,-3.31e-4 -0.15529,-0.0083 -0.0924,-0.01784 z m -17.53629,-0.07713 c 0.002,-0.04816 0.0118,-0.05796 0.025,-0.02498 0.0119,0.02984 0.0105,0.0655 -0.003,0.07924 -0.0137,0.01374 -0.0235,-0.01068 -0.0217,-0.05426 z m 3.18327,-0.08268 c 0.002,-0.04816 0.0118,-0.05796 0.025,-0.02498 0.0119,0.02984 0.0105,0.0655 -0.003,0.07924 -0.0137,0.01374 -0.0235,-0.01068 -0.0217,-0.05426 z m -3.59668,-0.165365 c 0.002,-0.04816 0.0118,-0.05796 0.025,-0.02498 0.0119,0.02984 0.0105,0.0655 -0.003,0.07924 -0.0137,0.01374 -0.0235,-0.01068 -0.0217,-0.05426 z m 0.45475,0 c 0.002,-0.04816 0.0118,-0.05796 0.025,-0.02498 0.0119,0.02984 0.0105,0.0655 -0.003,0.07924 -0.0137,0.01374 -0.0235,-0.01068 -0.0217,-0.05426 z m 7.45138,-0.18259 c 0,-0.147794 0.008,-0.208256 0.0167,-0.134359 0.009,0.0739 0.009,0.194821 0,0.268718 -0.009,0.0739 -0.0167,0.01344 -0.0167,-0.134359 z m -4.80554,0.09991 c 0.002,-0.04816 0.0118,-0.05796 0.025,-0.02498 0.0119,0.02984 0.0105,0.0655 -0.003,0.07924 -0.0137,0.01374 -0.0235,-0.01068 -0.0217,-0.05426 z m 0.45475,0 c 0.002,-0.04816 0.0118,-0.05796 0.025,-0.02498 0.0119,0.02984 0.0105,0.0655 -0.003,0.07924 -0.0137,0.01374 -0.0235,-0.01068 -0.0217,-0.05426 z m -3.514,-0.165364 c 0.002,-0.04816 0.0118,-0.05796 0.025,-0.02498 0.0119,0.02984 0.0105,0.0655 -0.003,0.07924 -0.0137,0.01374 -0.0235,-0.01068 -0.0217,-0.05426 z m 1.7124,-0.01723 c 0.014,-0.02274 0.043,-0.04134 0.0644,-0.04134 0.0214,0 0.0389,0.0186 0.0389,0.04134 0,0.02274 -0.029,0.04134 -0.0644,0.04134 -0.0354,0 -0.053,-0.0186 -0.0389,-0.04134 z m 1.30551,-0.06546 c 0.002,-0.04816 0.0118,-0.05796 0.025,-0.02498 0.012,0.02984 0.0105,0.0655 -0.003,0.07924 -0.0137,0.01374 -0.0235,-0.01068 -0.0217,-0.05426 z m 0.45475,0 c 0.002,-0.04816 0.0118,-0.05796 0.025,-0.02498 0.0119,0.02984 0.0105,0.0655 -0.003,0.07924 -0.0137,0.01374 -0.0235,-0.01068 -0.0217,-0.05426 z m 0.71277,-0.18259 c 0,-0.147795 0.008,-0.208256 0.0167,-0.134359 0.009,0.0739 0.009,0.19482 0,0.268718 -0.009,0.0739 -0.0167,0.01344 -0.0167,-0.134359 z m 0.45433,0.02067 c 2.5e-4,-0.136426 0.008,-0.187253 0.0172,-0.112948 0.009,0.0743 0.009,0.185925 -4.2e-4,0.248047 -0.009,0.06212 -0.017,0.0013 -0.0167,-0.135099 z m 1.52962,0 c 2.5e-4,-0.136426 0.008,-0.187253 0.0171,-0.112948 0.009,0.0743 0.009,0.185925 -4.2e-4,0.248047 -0.009,0.06212 -0.017,0.0013 -0.0167,-0.135099 z m 6.44922,0 c 2.5e-4,-0.136426 0.008,-0.187253 0.0172,-0.112948 0.009,0.0743 0.009,0.185925 -4.2e-4,0.248047 -0.009,0.06212 -0.017,0.0013 -0.0167,-0.135099 z m 0.45475,0 c 2.5e-4,-0.136426 0.008,-0.187253 0.0172,-0.112948 0.009,0.0743 0.009,0.185925 -4.2e-4,0.248047 -0.009,0.06212 -0.017,0.0013 -0.0167,-0.135099 z m 1.98438,0 c 2.4e-4,-0.136426 0.008,-0.187253 0.0172,-0.112948 0.009,0.0743 0.009,0.185925 -4.2e-4,0.248047 -0.009,0.06212 -0.017,0.0013 -0.0167,-0.135099 z m 1.73675,-0.02067 c 0,-0.147795 0.007,-0.208256 0.0167,-0.134359 0.009,0.0739 0.009,0.19482 0,0.268718 -0.009,0.0739 -0.0167,0.01344 -0.0167,-0.134359 z m 0.45433,0.02067 c 2.5e-4,-0.136426 0.008,-0.187253 0.0172,-0.112948 0.009,0.0743 0.009,0.185925 -4.2e-4,0.248047 -0.009,0.06212 -0.017,0.0013 -0.0167,-0.135099 z m 1.52962,0 c 2.5e-4,-0.136426 0.008,-0.187253 0.0172,-0.112948 0.009,0.0743 0.009,0.185925 -4.2e-4,0.248047 -0.009,0.06212 -0.017,0.0013 -0.0167,-0.135099 z m -4.17644,0 c 3.3e-4,-0.113689 0.008,-0.155291 0.0178,-0.09245 0.01,0.06284 0.009,0.155859 -5.6e-4,0.206706 -0.01,0.05085 -0.0176,-5.7e-4 -0.0173,-0.114256 z m -14.56065,-0.0034 c 0.002,-0.04816 0.0118,-0.05796 0.025,-0.02498 0.0119,0.02984 0.0105,0.0655 -0.003,0.07924 -0.0137,0.01374 -0.0235,-0.01068 -0.0217,-0.05426 z m 2.93523,-0.08268 c 0.002,-0.04816 0.0118,-0.05796 0.025,-0.02498 0.012,0.02984 0.0105,0.0655 -0.003,0.07924 -0.0137,0.01374 -0.0235,-0.01068 -0.0217,-0.05426 z m 0.45475,0 c 0.002,-0.04816 0.0118,-0.05796 0.025,-0.02498 0.0119,0.02984 0.0105,0.0655 -0.003,0.07924 -0.0137,0.01374 -0.0235,-0.01068 -0.0217,-0.05426 z m 4.46484,-0.206706 c 0.002,-0.04816 0.0118,-0.05796 0.025,-0.02498 0.0119,0.02984 0.0105,0.0655 -0.003,0.07924 -0.0137,0.01374 -0.0235,-0.01068 -0.0217,-0.05426 z m -4.50618,-0.04134 c 0.002,-0.04816 0.0118,-0.05796 0.025,-0.02498 0.012,0.02984 0.0105,0.0655 -0.003,0.07924 -0.0137,0.01374 -0.0235,-0.01068 -0.0217,-0.05426 z m -3.26595,-0.124024 c 0.002,-0.04816 0.0118,-0.05796 0.025,-0.02498 0.0119,0.02984 0.0105,0.0655 -0.003,0.07924 -0.0137,0.01374 -0.0235,-0.01068 -0.0217,-0.05426 z m 3.22461,-0.124023 c 0.002,-0.04816 0.0118,-0.05796 0.025,-0.02498 0.012,0.02984 0.0105,0.0655 -0.003,0.07924 -0.0137,0.01374 -0.0235,-0.01068 -0.0217,-0.05426 z m -3.18327,-0.124024 c 0.002,-0.04816 0.0118,-0.05796 0.025,-0.02498 0.0119,0.02984 0.0105,0.0655 -0.003,0.07924 -0.0137,0.01374 -0.0235,-0.01068 -0.0217,-0.05426 z m 9.26041,0 c 0.002,-0.04816 0.0118,-0.05796 0.025,-0.02498 0.0119,0.02984 0.0105,0.0655 -0.003,0.07924 -0.0137,0.01374 -0.0235,-0.01068 -0.0217,-0.05426 z m -6.68229,-0.121795 c -0.0777,-0.06123 -0.0771,-0.06286 0.0199,-0.05168 0.0551,0.0064 0.10777,0.0348 0.11713,0.06323 0.0232,0.07032 -0.0398,0.06501 -0.137,-0.01155 z m 0.56381,-0.0022 c 0.002,-0.04816 0.0118,-0.05796 0.025,-0.02498 0.0119,0.02984 0.0105,0.0655 -0.003,0.07924 -0.0137,0.01374 -0.0235,-0.01068 -0.0217,-0.05426 z m 10.73768,0.03722 c 0.0298,-0.01194 0.0655,-0.01047 0.0792,0.0033 0.0137,0.01374 -0.0107,0.02351 -0.0543,0.02171 -0.0482,-0.002 -0.058,-0.01178 -0.025,-0.02498 z m -8.72509,-0.04234 c 0.0514,-0.0099 0.12584,-0.0095 0.16537,8.35e-4 0.0395,0.01035 -0.003,0.01844 -0.0935,0.01798 -0.091,-4.59e-4 -0.12329,-0.0089 -0.0719,-0.01881 z m 3.14193,0 c 0.0514,-0.0099 0.12584,-0.0095 0.16537,8.35e-4 0.0395,0.01035 -0.003,0.01844 -0.0935,0.01798 -0.091,-4.59e-4 -0.12329,-0.0089 -0.0719,-0.01881 z m 2.62617,-0.156798 c 3.3e-4,-0.113688 0.008,-0.15529 0.0178,-0.09245 0.01,0.06284 0.009,0.155859 -5.6e-4,0.206706 -0.01,0.05085 -0.0176,-5.71e-4 -0.0173,-0.114257 z m 6.84095,0.156796 c 0.0514,-0.0099 0.12584,-0.0095 0.16537,8.35e-4 0.0395,0.01035 -0.003,0.01844 -0.0935,0.01798 -0.091,-4.59e-4 -0.12329,-0.0089 -0.0719,-0.01881 z m -17.2294,-0.05344 c 0,-0.02274 0.0279,-0.04134 0.062,-0.04134 0.0341,0 0.062,0.0186 0.062,0.04134 0,0.02274 -0.0279,0.04134 -0.062,0.04134 -0.0341,0 -0.062,-0.0186 -0.062,-0.04134 z m -0.49283,-0.06546 c 0.002,-0.04816 0.0118,-0.05796 0.025,-0.02498 0.0119,0.02984 0.0105,0.0655 -0.003,0.07924 -0.0137,0.01374 -0.0235,-0.01068 -0.0217,-0.05426 z m 18.38321,-0.0033 c 0.0284,-0.01147 0.0749,-0.01147 0.10335,0 0.0284,0.01147 0.005,0.02085 -0.0517,0.02085 -0.0568,0 -0.0801,-0.0094 -0.0517,-0.02085 z M -521.7988,44.20434 c 0.002,-0.04816 0.0118,-0.05796 0.025,-0.02498 0.0119,0.02984 0.0105,0.0655 -0.003,0.07924 -0.0137,0.01374 -0.0235,-0.01068 -0.0217,-0.05426 z m 10.82037,-0.128149 c 0.0298,-0.01194 0.0655,-0.01047 0.0792,0.0033 0.0137,0.01374 -0.0107,0.02351 -0.0543,0.02171 -0.0482,-0.002 -0.058,-0.01178 -0.025,-0.02498 z m -0.29197,-0.04048 c 0.0284,-0.01147 0.0749,-0.01147 0.10335,0 0.0284,0.01147 0.005,0.02085 -0.0517,0.02085 -0.0568,0 -0.0801,-0.0094 -0.0517,-0.02085 z m -10.56974,-0.07942 c 0.002,-0.04816 0.0118,-0.05796 0.025,-0.02498 0.0119,0.02984 0.0105,0.0655 -0.003,0.07924 -0.0137,0.01374 -0.0235,-0.01068 -0.0217,-0.05426 z m 8.56717,-0.16192 c 2.4e-4,-0.136425 0.008,-0.187252 0.0172,-0.112947 0.009,0.0743 0.009,0.185925 -4.2e-4,0.248047 -0.009,0.06212 -0.017,0.0013 -0.0167,-0.1351 z m -11.50239,0.07924 c 0.002,-0.04816 0.0118,-0.05796 0.025,-0.02498 0.0119,0.02984 0.0105,0.0655 -0.003,0.07924 -0.0137,0.01374 -0.0235,-0.01068 -0.0217,-0.05426 z m 11.04806,-0.18259 c 0,-0.147795 0.008,-0.208256 0.0167,-0.134359 0.009,0.0739 0.009,0.19482 0,0.268717 -0.009,0.0739 -0.0167,0.01344 -0.0167,-0.134358 z m -8.15418,0.01723 c 0.002,-0.04816 0.0118,-0.05796 0.025,-0.02498 0.0119,0.02984 0.0105,0.0655 -0.003,0.07924 -0.0137,0.01374 -0.0235,-0.01068 -0.0217,-0.05426 z m 7.20122,-0.0045 c 0.0402,-0.01048 0.096,-0.0098 0.12402,0.0015 0.028,0.01132 -0.005,0.0199 -0.0731,0.01906 -0.0682,-8.43e-4 -0.0911,-0.01011 -0.0509,-0.02059 z m -10.05376,-0.07815 c 0.002,-0.04816 0.0118,-0.05796 0.025,-0.02498 0.0119,0.02984 0.0105,0.0655 -0.003,0.07924 -0.0137,0.01374 -0.0235,-0.01068 -0.0217,-0.05426 z m 2.8112,-0.165365 c 0.002,-0.04816 0.0118,-0.05796 0.025,-0.02498 0.0119,0.02984 0.0105,0.0655 -0.003,0.07924 -0.0137,0.01374 -0.0235,-0.01068 -0.0217,-0.05426 z m -2.76986,-0.08268 c 0.002,-0.04816 0.0118,-0.05796 0.025,-0.02498 0.0119,0.02984 0.0105,0.0655 -0.003,0.07924 -0.0137,0.01374 -0.0235,-0.01068 -0.0217,-0.05426 z m 11.82031,-0.07579 c 0,-0.07769 -0.0233,-0.150633 -0.0517,-0.162101 -0.0309,-0.01246 -0.0226,-0.02217 0.0207,-0.02412 0.0574,-0.0026 0.0723,0.03093 0.0723,0.162101 0,0.09095 -0.009,0.165365 -0.0207,0.165365 -0.0114,0 -0.0207,-0.06356 -0.0207,-0.141249 z m -9.3431,-0.06546 -0.26872,-0.02707 0.27905,-0.0071 c 0.16324,-0.0042 0.27906,0.01002 0.27906,0.03421 0,0.02274 -0.005,0.03813 -0.0103,0.03421 -0.006,-0.0039 -0.13126,-0.01932 -0.27905,-0.03421 z m -2.32544,-0.02991 c 0.0739,-0.0092 0.19482,-0.0092 0.26872,0 0.0739,0.0092 0.0134,0.01667 -0.13436,0.01667 -0.1478,0 -0.20826,-0.0075 -0.13436,-0.01667 z m 15.25488,-0.08268 c 0.0739,-0.0092 0.19482,-0.0092 0.26872,0 0.0739,0.0092 0.0134,0.01667 -0.13436,0.01667 -0.14779,0 -0.20826,-0.0075 -0.13436,-0.01667 z m 3.10133,-4.1e-5 c 0.0743,-0.0092 0.18592,-0.009 0.24804,4.22e-4 0.0621,0.0094 0.001,0.01696 -0.13509,0.01673 -0.13643,-2.48e-4 -0.18726,-0.008 -0.11295,-0.01715 z m -8.53769,-0.03989 c 0.0398,-0.0104 0.1049,-0.0104 0.1447,0 0.0398,0.0104 0.007,0.01891 -0.0724,0.01891 -0.0796,0 -0.11214,-0.0085 -0.0724,-0.01891 z m 1.4056,-0.0011 c 0.0625,-0.0095 0.16485,-0.0095 0.22738,0 0.0625,0.0095 0.0114,0.01722 -0.11369,0.01722 -0.12506,0 -0.17622,-0.0078 -0.11369,-0.01722 z m -8.98604,-4.33345 c -2.00971,-2.013143 -3.66022,-3.678157 -3.6678,-3.700032 -0.009,-0.02495 0.49986,-0.03977 1.3644,-0.03977 h 1.37819 l 2.2528,2.253093 c 1.23905,1.2392 2.2783,2.253092 2.30946,2.253092 0.0665,0 1.57661,-1.519062 1.57661,-1.585962 0,-0.02499 -0.63717,-0.687611 -1.41593,-1.472494 l -1.41594,-1.427058 1.40462,-0.0109 1.40462,-0.0109 0.72487,0.724031 c 0.39868,0.398217 0.74338,0.724031 0.76602,0.724031 0.0226,0 0.68286,-0.642977 1.46719,-1.428839 0.78432,-0.785861 1.4596,-1.447477 1.50062,-1.470257 0.0636,-0.03531 0.29989,0.182696 1.60311,1.478966 l 1.52853,1.520385 0.77441,-0.773597 0.7744,-0.773598 h 1.43621 c 0.78991,0 1.4362,0.01402 1.4362,0.03115 0,0.06067 -4.32141,4.351008 -4.38252,4.351008 -0.0341,0 -0.73161,-0.669727 -1.54993,-1.488282 -0.81832,-0.818554 -1.5066,-1.488281 -1.52952,-1.488281 -0.0229,0 -1.39032,1.348755 -3.03868,2.997233 -1.64836,1.648478 -3.00847,2.997233 -3.02247,2.997233 -0.014,0 -1.66977,-1.647117 -3.67947,-3.66026 z m -3.81938,-3.822487 c 0.014,-0.02274 0.0337,-0.04134 0.0438,-0.04134 0.01,0 0.0182,0.0186 0.0182,0.04134 0,0.02274 -0.0197,0.04134 -0.0438,0.04134 -0.0241,0 -0.0323,-0.0186 -0.0182,-0.04134 z m 17.56606,-0.630453 -0.0788,-0.09302 0.093,0.07875 c 0.0512,0.04331 0.093,0.08517 0.093,0.09302 0,0.03308 -0.0333,0.0087 -0.10728,-0.07876 z m -0.80535,-0.806152 -0.10023,-0.113688 0.11369,0.100224 c 0.10626,0.09367 0.13265,0.127152 0.10022,0.127152 -0.007,0 -0.0586,-0.05116 -0.11368,-0.113688 z m -0.82683,-0.826823 -0.10022,-0.113688 0.11369,0.100224 c 0.0625,0.05512 0.11369,0.106283 0.11369,0.113688 0,0.03242 -0.0335,0.006 -0.12716,-0.100224 z m -6.81163,-0.630452 c 0,-0.05684 0.009,-0.0801 0.0208,-0.05168 0.0115,0.02842 0.0115,0.07493 0,0.103353 -0.0115,0.02842 -0.0208,0.0052 -0.0208,-0.05168 z m 6.02615,-0.155029 -0.10022,-0.113689 0.11369,0.100224 c 0.10625,0.09368 0.13264,0.127153 0.10022,0.127153 -0.007,0 -0.0586,-0.05116 -0.11369,-0.113688 z m -0.76561,-0.764812 -0.0788,-0.09302 0.093,0.07875 c 0.0874,0.07401 0.11184,0.107281 0.0788,0.107281 -0.008,0 -0.0497,-0.04186 -0.093,-0.09302 z m -3.86147,-0.527099 c 0,-0.02274 0.029,-0.04134 0.0645,-0.04134 0.0354,0 0.053,0.0186 0.0389,0.04134 -0.014,0.02274 -0.043,0.04134 -0.0645,0.04134 -0.0214,0 -0.0389,-0.0186 -0.0389,-0.04134 z m 3.01791,-0.206706 c 0,-0.02274 0.0175,-0.04134 0.0389,-0.04134 0.0214,0 0.0504,0.0186 0.0644,0.04134 0.014,0.02274 -0.003,0.04134 -0.0389,0.04134 -0.0354,0 -0.0644,-0.0186 -0.0644,-0.04134 z m -6.12883,-0.02738 c 0.0284,-0.01147 0.0749,-0.01147 0.10335,0 0.0284,0.01147 0.005,0.02085 -0.0517,0.02085 -0.0569,0 -0.0801,-0.0094 -0.0517,-0.02085 z m -1.95337,-0.758103 c 0.0412,-0.04547 0.0841,-0.08268 0.0955,-0.08268 0.0114,0 -0.013,0.03721 -0.0542,0.08268 -0.0412,0.04548 -0.0841,0.08268 -0.0955,0.08268 -0.0114,0 0.013,-0.03721 0.0542,-0.08268 z m 0.68213,-0.674394 c 0,-0.0071 0.0605,-0.06758 0.13436,-0.134359 l 0.13436,-0.121422 -0.12142,0.134358 c -0.11319,0.125241 -0.1473,0.153362 -0.1473,0.121423 z m 0.82682,-0.826823 c 0,-0.0071 0.0605,-0.06758 0.13436,-0.134359 l 0.13436,-0.121422 -0.12142,0.134358 c -0.11318,0.125241 -0.1473,0.153362 -0.1473,0.121423 z"
         id="path155"
         inkscape:connector-curvature="0" />
      <path
         style="fill:#42a5fd;stroke-width:0.04134114"
         d="m -522.30283,38.749151 c -2.00971,-2.013143 -3.66022,-3.678157 -3.6678,-3.700032 -0.009,-0.02495 0.49986,-0.03977 1.3644,-0.03977 h 1.37819 l 2.2528,2.253093 c 1.23905,1.2392 2.2783,2.253092 2.30946,2.253092 0.0665,0 1.57661,-1.519062 1.57661,-1.585962 0,-0.02499 -0.63717,-0.687611 -1.41593,-1.472494 l -1.41594,-1.427058 1.40462,-0.0109 1.40462,-0.0109 0.72487,0.724031 c 0.39868,0.398217 0.74338,0.724031 0.76602,0.724031 0.0226,0 0.68286,-0.642977 1.46719,-1.428839 0.78432,-0.785861 1.4596,-1.447477 1.50062,-1.470257 0.0636,-0.03531 0.29989,0.182696 1.60311,1.478966 l 1.52853,1.520385 0.77441,-0.773597 0.7744,-0.773598 h 1.43621 c 0.78991,0 1.4362,0.01402 1.4362,0.03115 0,0.06067 -4.32141,4.351008 -4.38252,4.351008 -0.0341,0 -0.73161,-0.669727 -1.54993,-1.488282 -0.81832,-0.818554 -1.5066,-1.488281 -1.52952,-1.488281 -0.0229,0 -1.39032,1.348755 -3.03868,2.997233 -1.64836,1.648478 -3.00847,2.997233 -3.02247,2.997233 -0.014,0 -1.66977,-1.647117 -3.67947,-3.66026 z"
         id="path153"
         inkscape:connector-curvature="0" />
    </g>
  </g>
</svg>
