<?xml version="1.0" encoding="UTF-8" standalone="no"?>
<!-- Created with Inkscape (http://www.inkscape.org/) -->

<svg
   xmlns:dc="http://purl.org/dc/elements/1.1/"
   xmlns:cc="http://creativecommons.org/ns#"
   xmlns:rdf="http://www.w3.org/1999/02/22-rdf-syntax-ns#"
   xmlns:svg="http://www.w3.org/2000/svg"
   xmlns="http://www.w3.org/2000/svg"
   xmlns:xlink="http://www.w3.org/1999/xlink"
   xmlns:sodipodi="http://sodipodi.sourceforge.net/DTD/sodipodi-0.dtd"
   xmlns:inkscape="http://www.inkscape.org/namespaces/inkscape"
   width="80"
   height="80"
   viewBox="0 0 21.166666 21.166666"
   version="1.1"
   id="svg3796"
   inkscape:version="0.92.4 (5da689c313, 2019-01-14)"
   sodipodi:docname="pluginIcon2.svg">
  <defs
     id="defs3790" />
  <sodipodi:namedview
     id="base"
     pagecolor="#ffffff"
     bordercolor="#666666"
     borderopacity="1.0"
     inkscape:pageopacity="0.0"
     inkscape:pageshadow="2"
     inkscape:zoom="5.6"
     inkscape:cx="19.793856"
     inkscape:cy="24.699359"
     inkscape:document-units="mm"
     inkscape:current-layer="g100"
     showgrid="false"
     units="px"
     inkscape:window-width="2560"
     inkscape:window-height="1335"
     inkscape:window-x="-13"
     inkscape:window-y="-13"
     inkscape:window-maximized="1"
     inkscape:pagecheckerboard="true" />
  <metadata
     id="metadata3793">
    <rdf:RDF>
      <cc:Work
         rdf:about="">
        <dc:format>image/svg+xml</dc:format>
        <dc:type
           rdf:resource="http://purl.org/dc/dcmitype/StillImage" />
        <dc:title></dc:title>
      </cc:Work>
    </rdf:RDF>
  </metadata>
  <g
     inkscape:label="Layer 1"
     inkscape:groupmode="layer"
     id="layer1"
     transform="translate(0,-275.83334)">
    <g
       id="g100">
      <path
         style="fill:#fefefe;stroke-width:0.04134114;fill-opacity:0.01470588"
         d="m 0,286.41667 v -10.58333 h 10.583333 10.583333 v 10.58333 10.58334 H 10.583333 0 Z"
         id="path116"
         inkscape:connector-curvature="0" />
      <path
         style="fill:#d1d1d1;stroke-width:0.04134114"
         d="m 5.9644763,296.06596 c -0.2383904,-0.0878 -0.5719713,-0.39771 -0.7030909,-0.65314 -0.141173,-0.27502 -0.1778836,-0.80927 -0.078704,-1.14539 0.089309,-0.30267 0.3271188,-0.60006 0.6050793,-0.75667 0.2021661,-0.1139 0.2640455,-0.12802 0.5581055,-0.12739 0.2648843,5.8e-4 0.3665835,0.0197 0.5108211,0.0961 l 0.1800919,0.0954 0.079901,-0.0858 c 0.063785,-0.0685 0.1301543,-0.0858 0.3290548,-0.0858 0.4398202,0 0.4090831,-0.10096 0.4090831,1.34358 0,1.44495 0.030983,1.34359 -0.4106937,1.34359 -0.194747,0 -0.2690391,-0.0183 -0.3325701,-0.0818 -0.081513,-0.0815 -0.08234,-0.0815 -0.2314182,0.006 -0.1967119,0.11607 -0.6675946,0.14219 -0.9156592,0.0508 z m 0.8506792,-0.75013 c 0.2120267,-0.1583 0.2748508,-0.28834 0.2748508,-0.56892 0,-0.2008 -0.020072,-0.28954 -0.085237,-0.37682 -0.1530159,-0.20494 -0.2906691,-0.27986 -0.5142098,-0.27986 -0.6794789,0 -0.8580123,0.99826 -0.229426,1.28282 0.1582068,0.0716 0.4172905,0.0449 0.5540218,-0.0572 z m 7.6706285,0.75941 c -0.479706,-0.15588 -0.826457,-0.56133 -0.921979,-1.07806 -0.162286,-0.87788 0.539954,-1.68032 1.42236,-1.62531 0.360854,0.0225 0.617841,0.13337 0.882125,0.38058 0.706714,0.66105 0.516867,1.84139 -0.361786,2.24934 -0.273828,0.12714 -0.750058,0.16141 -1.02072,0.0734 z m 0.760737,-0.75644 c 0.120787,-0.0758 0.248745,-0.28456 0.281869,-0.45985 0.03633,-0.19226 -0.05463,-0.47765 -0.195166,-0.61229 -0.172389,-0.16516 -0.532999,-0.1897 -0.7398,-0.0504 -0.442168,0.29795 -0.352048,1.045 0.1434,1.18872 0.152307,0.0442 0.381155,0.0145 0.509697,-0.0662 z m 3.327004,0.7468 c -0.2381,-0.0872 -0.571833,-0.39708 -0.703091,-0.65278 -0.141173,-0.27502 -0.177883,-0.80927 -0.0787,-1.14539 0.08931,-0.30267 0.327119,-0.60006 0.605079,-0.75667 0.202166,-0.1139 0.264046,-0.12802 0.558106,-0.12739 0.261742,5.7e-4 0.367035,0.02 0.504782,0.093 0.09573,0.0508 0.184096,0.0923 0.19637,0.0923 0.01227,0 0.02232,-0.22882 0.02232,-0.5085 0,-0.34037 0.0164,-0.52489 0.04961,-0.5581 0.02999,-0.03 0.175406,-0.0496 0.367647,-0.0496 0.251873,0 0.323259,0.0136 0.343132,0.0654 0.0138,0.036 0.02509,0.83527 0.02509,1.77622 0,1.96133 0.0377,1.79641 -0.410694,1.79641 -0.191982,0 -0.269334,-0.0186 -0.329977,-0.0792 -0.07806,-0.0781 -0.08183,-0.0779 -0.258382,0.01 -0.22789,0.11284 -0.647918,0.13396 -0.891289,0.0448 z m 0.85068,-0.74977 c 0.212026,-0.1583 0.27485,-0.28834 0.27485,-0.56892 0,-0.2008 -0.02007,-0.28954 -0.08524,-0.37682 -0.153016,-0.20494 -0.29067,-0.27986 -0.51421,-0.27986 -0.679479,0 -0.858013,0.99826 -0.229426,1.28282 0.158207,0.0716 0.41729,0.0449 0.554022,-0.0572 z m -18.58704682,0.74939 c -0.028422,-0.0126 -0.0516764,-0.0661 -0.0516764,-0.1189 0,-0.1494 0.53461652,-3.21358 0.57892582,-3.31814 0.036142,-0.0853 0.066564,-0.093 0.3659721,-0.093 0.2118924,0 0.340899,0.0181 0.3674092,0.0517 0.022471,0.0284 0.1942711,0.51374 0.3817789,1.07849 0.1875078,0.56475 0.3565884,1.01115 0.3757346,0.992 0.019146,-0.0191 0.1842272,-0.47899 0.3668467,-1.02188 0.1826195,-0.54289 0.3531765,-1.01255 0.3790155,-1.04368 0.055556,-0.0669 0.6784781,-0.0808 0.7185348,-0.016 0.035448,0.0573 0.5575602,3.1769 0.5581059,3.3346 2.894e-4,0.0807 -0.024349,0.13945 -0.064943,0.15503 -0.116933,0.0449 -0.5371157,0.0265 -0.6068818,-0.0266 -0.048926,-0.0372 -0.109035,-0.28933 -0.2146073,-0.90017 -0.080656,-0.46668 -0.1466465,-0.86573 -0.1466465,-0.88677 0,-0.12621 -0.1046255,0.13843 -0.350987,0.88777 -0.1532459,0.46613 -0.3079527,0.87075 -0.3437928,0.89917 -0.087183,0.0691 -0.5097601,0.0662 -0.6060448,-0.004 -0.047413,-0.0347 -0.1897841,-0.39145 -0.3752987,-0.94051 -0.2305129,-0.68223 -0.304948,-0.861 -0.3253139,-0.7813 -0.014525,0.0568 -0.090558,0.46409 -0.1689637,0.90499 -0.078405,0.4409 -0.1535923,0.81267 -0.167082,0.82616 -0.032497,0.0325 -0.60394777,0.0506 -0.67008529,0.0212 z m 7.58610002,-0.0194 c -0.066393,-0.0387 -0.072347,-0.14563 -0.072347,-1.29954 0,-1.44385 -0.030726,-1.34298 0.409083,-1.34298 0.1977492,0 0.2654056,0.0174 0.3279225,0.0845 l 0.078768,0.0846 0.14569,-0.086 c 0.3181916,-0.18774 0.7942123,-0.14662 1.0858683,0.0938 0.286628,0.23627 0.307179,0.33372 0.308206,1.46158 l 9.09e-4,0.9977 -0.09302,0.0249 c -0.161996,0.0434 -0.508691,0.0281 -0.578521,-0.0256 -0.057294,-0.044 -0.069148,-0.1741 -0.080249,-0.88041 -0.01098,-0.69866 -0.02416,-0.84572 -0.083971,-0.93692 -0.1399133,-0.21334 -0.4459779,-0.18254 -0.6281352,0.0632 -0.078718,0.1062 -0.088238,0.18813 -0.1070707,0.92145 -0.01681,0.65454 -0.032253,0.81218 -0.082682,0.84398 -0.082539,0.052 -0.539065,0.0489 -0.6304524,-0.004 z m 2.7698568,0 c -0.06639,-0.0387 -0.07235,-0.14563 -0.07235,-1.29954 0,-1.44351 -0.03052,-1.34298 0.407741,-1.34298 0.395509,0 0.377741,-0.0632 0.377741,1.34358 0,1.04821 -0.0089,1.22252 -0.06497,1.27863 -0.07516,0.0752 -0.529549,0.0894 -0.64817,0.0203 z m 1.108828,-0.0203 c -0.05517,-0.0552 -0.06496,-0.20378 -0.06496,-0.98556 v -0.92058 l -0.103353,-0.0471 c -0.09491,-0.0433 -0.103353,-0.0692 -0.103353,-0.31758 0,-0.24499 0.0093,-0.27473 0.09868,-0.31545 0.102441,-0.0467 0.14783,-0.19609 0.149071,-0.49071 7.9e-4,-0.18777 0.126995,-0.39129 0.297228,-0.47932 0.157587,-0.0815 0.490203,-0.0913 0.704039,-0.0207 0.143554,0.0474 0.149692,0.0575 0.16321,0.2693 0.02139,0.33519 0.0137,0.34877 -0.20561,0.36291 -0.191475,0.0124 -0.193906,0.0143 -0.206586,0.16753 -0.01258,0.15197 -0.01,0.15503 0.131406,0.15503 0.206018,0 0.274166,0.0873 0.274166,0.3514 0,0.26324 -0.06815,0.3514 -0.27167,0.3514 H 13.02247 v 0.94939 c 0,1.09273 0.02275,1.03498 -0.407741,1.03498 -0.170162,0 -0.268168,-0.0204 -0.312777,-0.065 z m 4.386575,0.0133 c -0.06476,-0.0475 -0.06957,-0.1936 -0.05958,-1.80867 l 0.01087,-1.757 0.329887,-0.0122 c 0.274729,-0.0102 0.338668,-2.5e-4 0.382406,0.0596 0.04043,0.0553 0.05252,0.45951 0.05252,1.75596 0,1.47591 -0.008,1.69216 -0.06497,1.7491 -0.08036,0.0804 -0.54673,0.0899 -0.651139,0.0133 z m -5.453226,-2.79946 c -0.219763,-0.17286 -0.250691,-0.51828 -0.06222,-0.69483 0.274878,-0.25749 0.66106,-0.1671 0.776164,0.18167 0.05888,0.17841 -0.0066,0.39445 -0.154912,0.51112 -0.140572,0.11057 -0.419769,0.11159 -0.559037,0.002 z m -7.5047866,-5.015 C 1.6787274,286.17175 0,284.48169 0,284.46867 c 0,-0.013 0.02726098,-0.0777 0.06057996,-0.14371 0.08035351,-0.15922 7.38492504,-7.45809 7.46391684,-7.45809 0.03373,0 0.7388414,0.68051 1.5669133,1.51224 l 1.5055859,1.51225 1.491994,-1.49158 c 0.820598,-0.82036 1.519845,-1.49157 1.553884,-1.49157 0.0689,0 7.38986,7.32218 7.476298,7.47755 0.05291,0.0951 -0.01455,0.16739 -2.170152,2.32544 -1.22362,1.225 -2.253162,2.22728 -2.287872,2.22728 -0.03471,0 -0.732642,-0.66972 -1.55096,-1.48828 -0.818317,-0.81855 -1.503767,-1.48828 -1.523222,-1.48828 -0.01945,0 -1.376206,1.34876 -3.015004,2.99723 -1.638798,1.64848 -3.0091792,2.99724 -3.0452919,2.99724 -0.036113,0 -1.7443867,-1.67941 -3.7961647,-3.73203 z m 4.5062984,-0.0606 c 0.4038237,-0.40336 0.7342246,-0.75228 0.7342246,-0.77537 0,-0.0231 -0.6418213,-0.68362 -1.4262695,-1.46782 -0.7844482,-0.7842 -1.4262695,-1.45373 -1.4262695,-1.48784 0,-0.0341 0.6463903,-0.70861 1.4364233,-1.49888 l 1.4364233,-1.43686 -0.7543416,-0.75434 -0.7543411,-0.75435 -2.2317186,2.23233 -2.2317185,2.23233 2.2185336,2.22209 c 1.2201934,1.22214 2.22895,2.22208 2.2416814,2.22208 0.012731,0 0.353549,-0.33002 0.7573726,-0.73337 z m 9.1675112,-3.0055 0.681822,-0.68496 -2.231972,-2.23226 -2.231972,-2.23226 -2.222229,2.22195 c -1.222226,1.22207 -2.2222299,2.2404 -2.2222299,2.26296 0,0.054 1.2889499,1.3442 1.3428899,1.3442 0.02289,0 0.704244,-0.66244 1.514126,-1.47209 1.285965,-1.28559 1.482394,-1.46661 1.550506,-1.42884 0.0429,0.0238 0.737158,0.70367 1.542806,1.51085 1.145274,1.14745 1.478951,1.45973 1.529622,1.4315 0.03564,-0.0199 0.371629,-0.34432 0.746631,-0.72105 z"
         id="path114"
         inkscape:connector-curvature="0" />
      <path
         style="fill:#9ecdf7;stroke-width:0.04134114"
         d="m 5.9665289,296.0253 c -0.5442149,-0.20072 -0.9040858,-0.88483 -0.8000124,-1.52083 0.1053939,-0.64406 0.5325314,-1.05343 1.138008,-1.09067 0.2599126,-0.016 0.3144995,-0.005 0.5359297,0.10795 0.1355977,0.0692 0.2472188,0.12197 0.2480469,0.11735 8.268e-4,-0.005 0.022043,-0.0456 0.047145,-0.0911 0.03669,-0.0665 0.096172,-0.0851 0.3033328,-0.0951 0.154319,-0.007 0.281121,0.007 0.3160952,0.0361 0.078905,0.0655 0.087194,2.43215 0.00879,2.51055 -0.02799,0.028 -0.1620874,0.0496 -0.3077145,0.0496 -0.2188823,0 -0.2677633,-0.0138 -0.3216635,-0.0907 l -0.063559,-0.0908 -0.1733194,0.0974 c -0.2215807,0.12453 -0.6768616,0.15398 -0.9310815,0.0602 z m 0.7988076,-0.64053 c 0.2397786,-0.11608 0.3559072,-0.31234 0.3614857,-0.61093 0.00535,-0.28649 -0.095815,-0.50954 -0.2838086,-0.62572 -0.1789794,-0.11062 -0.5338655,-0.11309 -0.6980121,-0.005 -0.4599748,0.30325 -0.3868424,1.086 0.1181819,1.26492 0.2247259,0.0796 0.2962324,0.0763 0.5021531,-0.0234 z m 7.6723695,0.63918 c -0.250227,-0.092 -0.603856,-0.43036 -0.739556,-0.70772 -0.0955,-0.1952 -0.11345,-0.28527 -0.11345,-0.56932 0,-0.28332 0.01803,-0.37429 0.112467,-0.5673 0.222926,-0.45565 0.643962,-0.73768 1.144304,-0.76651 0.675924,-0.0389 1.219075,0.3637 1.389857,1.03032 0.148696,0.58042 -0.153208,1.22596 -0.707728,1.51328 -0.262135,0.13583 -0.807379,0.16959 -1.085894,0.0673 z m 0.923321,-0.76958 c 0.18241,-0.19904 0.24633,-0.43909 0.183603,-0.68952 -0.141482,-0.56483 -0.815064,-0.68299 -1.168992,-0.20506 -0.199306,0.26913 -0.110644,0.775 0.169958,0.96969 0.131445,0.0912 0.185602,0.1029 0.414844,0.0896 0.241416,-0.014 0.275215,-0.0279 0.400587,-0.16471 z m 3.274074,0.79742 c -0.587651,-0.1897 -0.967709,-0.87343 -0.859389,-1.54604 0.102253,-0.63493 0.529124,-1.05055 1.122758,-1.09316 0.271323,-0.0195 0.35071,0.004 0.789064,0.22952 0.0164,0.008 0.035,-0.24181 0.04134,-0.55613 l 0.01152,-0.57149 h 0.330729 0.330729 l 0.0108,1.71087 c 0.0078,1.22862 -0.0024,1.72678 -0.03607,1.76733 -0.03057,0.0368 -0.137731,0.0565 -0.308177,0.0565 -0.222184,0 -0.270828,-0.0136 -0.32487,-0.0907 l -0.06356,-0.0908 -0.17332,0.0974 c -0.190066,0.10682 -0.663384,0.15391 -0.871558,0.0867 z m 0.638499,-0.62445 c 0.339626,-0.0943 0.542392,-0.48995 0.445696,-0.86962 -0.08489,-0.33331 -0.28361,-0.49294 -0.613671,-0.49294 -0.414001,0 -0.64476,0.24376 -0.645756,0.68213 -7.2e-4,0.31637 0.123178,0.534 0.367076,0.64477 0.19705,0.0895 0.240392,0.0929 0.446655,0.0357 z m -18.43423892,0.55352 c -0.023656,-0.0616 0.43537522,-2.87337 0.53073942,-3.25097 l 0.039568,-0.15666 0.3378697,0.012 0.3378697,0.012 0.3682669,1.08521 c 0.2025468,0.59686 0.3798022,1.08509 0.3939008,1.08496 0.014099,-1.2e-4 0.1930656,-0.48848 0.3977042,-1.08521 l 0.3720703,-1.08496 0.3060527,-0.0123 c 0.1699205,-0.007 0.3247537,0.006 0.3480965,0.0298 0.070654,0.0707 0.6057797,3.32314 0.5565676,3.38281 -0.047767,0.0579 -0.5166779,0.0711 -0.6020556,0.0169 -0.031032,-0.0197 -0.1123256,-0.38158 -0.1972032,-0.87787 -0.1833786,-1.07223 -0.1819046,-1.06573 -0.2240926,-0.98847 -0.018447,0.0338 -0.1664741,0.45098 -0.3289481,0.92711 -0.1624738,0.47612 -0.3156342,0.89005 -0.3403563,0.91984 -0.058125,0.07 -0.492751,0.0719 -0.580279,0.002 -0.03584,-0.0284 -0.1990722,-0.4563 -0.362739,-0.95084 -0.1636668,-0.49455 -0.3146326,-0.89917 -0.3354794,-0.89917 -0.020847,0 -0.037903,0.0156 -0.037903,0.0346 0,0.1013 -0.2971055,1.69511 -0.3307048,1.77404 -0.035724,0.0839 -0.068086,0.093 -0.3311647,0.093 -0.23296383,0 -0.29683983,-0.0137 -0.31777982,-0.0683 z m 7.60456772,0.0409 c -0.03975,-0.016 -0.051676,-0.31087 -0.051676,-1.27752 v -1.25668 l 0.095227,-0.0239 c 0.052375,-0.0131 0.1965519,-0.0181 0.3203939,-0.0111 0.1822458,0.0103 0.2324525,0.0294 0.2633902,0.0998 0.038095,0.0867 0.038974,0.0866 0.2625799,-0.031 0.4340858,-0.22835 0.9228372,-0.12527 1.1874772,0.25043 l 0.124024,0.17607 0.02848,0.97542 c 0.01825,0.62506 0.01368,1.00306 -0.01273,1.05241 -0.03536,0.0661 -0.08342,0.0753 -0.338537,0.0649 l -0.297325,-0.0121 -0.02067,-0.84932 c -0.017667,-0.72589 -0.031498,-0.86584 -0.09518,-0.96302 -0.1935043,-0.29532 -0.6020987,-0.2072 -0.7568696,0.16322 -0.041548,0.0994 -0.057456,0.3359 -0.057456,0.85404 0,0.50218 -0.014841,0.73137 -0.049609,0.76614 -0.048434,0.0484 -0.4956158,0.065 -0.6015136,0.0222 z m 2.7698562,0 c -0.03974,-0.016 -0.05168,-0.31014 -0.05168,-1.27389 0,-1.10447 0.0078,-1.25601 0.06539,-1.27813 0.115498,-0.0443 0.53652,-0.0268 0.587797,0.0245 0.07084,0.0708 0.07084,2.43444 0,2.50527 -0.04843,0.0484 -0.495616,0.065 -0.601514,0.0222 z m 1.114144,-0.0222 c -0.03567,-0.0357 -0.04961,-0.3132 -0.04961,-0.98771 v -0.93809 l -0.103353,-0.0259 c -0.0969,-0.0243 -0.103353,-0.0426 -0.103353,-0.29308 0,-0.24629 0.0076,-0.26906 0.09762,-0.29165 0.08858,-0.0222 0.09973,-0.0525 0.120471,-0.3267 0.01257,-0.16621 0.05267,-0.35986 0.08912,-0.43034 0.108096,-0.20903 0.39713,-0.31834 0.715528,-0.27059 0.232894,0.0349 0.341524,0.13789 0.341524,0.32371 0,0.22811 -0.03331,0.2721 -0.206067,0.2721 -0.189039,0 -0.258631,0.0738 -0.241171,0.25568 0.01184,0.12338 0.02758,0.13843 0.157684,0.15077 0.208014,0.0197 0.248213,0.0711 0.248213,0.31702 0,0.24593 -0.0402,0.29728 -0.248213,0.31701 l -0.144528,0.0137 -0.01113,0.94889 c -0.0082,0.69585 -0.0247,0.95752 -0.06201,0.98122 -0.08086,0.0514 -0.54573,0.039 -0.600716,-0.016 z m 4.383769,0.0152 c -0.04088,-0.026 -0.04981,-0.40726 -0.04134,-1.7667 l 0.0108,-1.73361 0.306416,-0.0123 c 0.217198,-0.009 0.31632,0.003 0.340431,0.0413 0.05752,0.0907 0.04381,3.39786 -0.01433,3.456 -0.05543,0.0554 -0.52013,0.0672 -0.601973,0.0152 z m -5.334123,-2.74362 c -0.260066,-0.0696 -0.384445,-0.44979 -0.216867,-0.66283 0.194284,-0.247 0.549322,-0.2349 0.707246,0.0241 0.214976,0.35256 -0.08755,0.74662 -0.490379,0.63874 z m -7.6095725,-5.03882 c -2.0382949,-2.04821 -3.72155952,-3.75167 -3.74058799,-3.78546 -0.02619443,-0.0465 0.8624072,-0.9602 3.65869129,-3.76196 2.0313088,-2.03529 3.7282296,-3.7196 3.7709358,-3.74292 0.067456,-0.0368 0.2777869,0.15748 1.6025184,1.48042 l 1.524871,1.52282 1.498277,-1.49785 c 0.824052,-0.82382 1.526328,-1.49786 1.560612,-1.49786 0.06614,0 7.523346,7.43681 7.523346,7.50277 0,0.0664 -4.43884,4.48616 -4.505518,4.48616 -0.03471,0 -0.732642,-0.66972 -1.55096,-1.48828 -0.818317,-0.81855 -1.506599,-1.48828 -1.529514,-1.48828 -0.02291,0 -1.390321,1.34876 -3.038682,2.99723 -1.6483609,1.64848 -3.0129895,2.99724 -3.0325091,2.99724 -0.019519,0 -1.7031853,-1.67581 -3.7414804,-3.72403 z m 4.4902185,-0.09 0.753965,-0.75479 -1.4261778,-1.42573 c -0.928513,-0.92822 -1.4261777,-1.45474 -1.4261777,-1.50886 0,-0.0541 0.4976949,-0.58067 1.4262695,-1.50895 0.7844482,-0.7842 1.4262695,-1.44472 1.4262695,-1.46782 0,-0.0541 -1.4551508,-1.50875 -1.50923,-1.50875 -0.02243,0 -1.0500853,1.00918 -2.283679,2.24262 l -2.2428981,2.24261 2.2219431,2.22223 c 1.2220686,1.22223 2.2407996,2.22223 2.2638464,2.22223 0.023047,0 0.3811881,-0.33965 0.7958691,-0.75479 z m 9.115687,-2.95586 0.733236,-0.73408 -2.252574,-2.25229 -2.252574,-2.25229 -2.232802,2.23138 c -1.228041,1.22726 -2.2328011,2.25043 -2.2328011,2.27371 0,0.0545 1.3310991,1.38498 1.3856061,1.38498 0.02261,0 0.69203,-0.65113 1.487603,-1.44694 0.872376,-0.87265 1.477255,-1.44694 1.523992,-1.44694 0.04665,0 0.67196,0.59198 1.571185,1.48746 0.82153,0.8181 1.503186,1.48783 1.514792,1.48828 0.01161,4.5e-4 0.351057,-0.32952 0.754337,-0.73327 z"
         id="path112"
         inkscape:connector-curvature="0" />
      <path
         style="fill:#41a5fd;stroke-width:0.04134114"
         d="m 5.9665289,296.0253 c -0.5442149,-0.20072 -0.9040858,-0.88483 -0.8000124,-1.52083 0.1053939,-0.64406 0.5325314,-1.05343 1.138008,-1.09067 0.2599126,-0.016 0.3144995,-0.005 0.5359297,0.10795 0.1355977,0.0692 0.2472188,0.12197 0.2480469,0.11735 8.268e-4,-0.005 0.022043,-0.0456 0.047145,-0.0911 0.03669,-0.0665 0.096172,-0.0851 0.3033328,-0.0951 0.154319,-0.007 0.281121,0.007 0.3160952,0.0361 0.078905,0.0655 0.087194,2.43215 0.00879,2.51055 -0.02799,0.028 -0.1620874,0.0496 -0.3077145,0.0496 -0.2188823,0 -0.2677633,-0.0138 -0.3216635,-0.0907 l -0.063559,-0.0908 -0.1733194,0.0974 c -0.2215807,0.12453 -0.6768616,0.15398 -0.9310815,0.0602 z m 0.7988076,-0.64053 c 0.2397786,-0.11608 0.3559072,-0.31234 0.3614857,-0.61093 0.00535,-0.28649 -0.095815,-0.50954 -0.2838086,-0.62572 -0.1789794,-0.11062 -0.5338655,-0.11309 -0.6980121,-0.005 -0.4599748,0.30325 -0.3868424,1.086 0.1181819,1.26492 0.2247259,0.0796 0.2962324,0.0763 0.5021531,-0.0234 z m 7.6723695,0.63918 c -0.250227,-0.092 -0.603856,-0.43036 -0.739556,-0.70772 -0.0955,-0.1952 -0.11345,-0.28527 -0.11345,-0.56932 0,-0.28332 0.01803,-0.37429 0.112467,-0.5673 0.222926,-0.45565 0.643962,-0.73768 1.144304,-0.76651 0.675924,-0.0389 1.219075,0.3637 1.389857,1.03032 0.148696,0.58042 -0.153208,1.22596 -0.707728,1.51328 -0.262135,0.13583 -0.807379,0.16959 -1.085894,0.0673 z m 0.923321,-0.76958 c 0.18241,-0.19904 0.24633,-0.43909 0.183603,-0.68952 -0.141482,-0.56483 -0.815064,-0.68299 -1.168992,-0.20506 -0.199306,0.26913 -0.110644,0.775 0.169958,0.96969 0.131445,0.0912 0.185602,0.1029 0.414844,0.0896 0.241416,-0.014 0.275215,-0.0279 0.400587,-0.16471 z m 3.274074,0.79742 c -0.587651,-0.1897 -0.967709,-0.87343 -0.859389,-1.54604 0.102253,-0.63493 0.529124,-1.05055 1.122758,-1.09316 0.271323,-0.0195 0.35071,0.004 0.789064,0.22952 0.0164,0.008 0.035,-0.24181 0.04134,-0.55613 l 0.01152,-0.57149 h 0.330729 0.330729 l 0.0108,1.71087 c 0.0078,1.22862 -0.0024,1.72678 -0.03607,1.76733 -0.03057,0.0368 -0.137731,0.0565 -0.308177,0.0565 -0.222184,0 -0.270828,-0.0136 -0.32487,-0.0907 l -0.06356,-0.0908 -0.17332,0.0974 c -0.190066,0.10682 -0.663384,0.15391 -0.871558,0.0867 z m 0.638499,-0.62445 c 0.339626,-0.0943 0.542392,-0.48995 0.445696,-0.86962 -0.08489,-0.33331 -0.28361,-0.49294 -0.613671,-0.49294 -0.414001,0 -0.64476,0.24376 -0.645756,0.68213 -7.2e-4,0.31637 0.123178,0.534 0.367076,0.64477 0.19705,0.0895 0.240392,0.0929 0.446655,0.0357 z m -18.43423892,0.55352 c -0.023656,-0.0616 0.43537522,-2.87337 0.53073942,-3.25097 l 0.039568,-0.15666 0.3378697,0.012 0.3378697,0.012 0.3682669,1.08521 c 0.2025468,0.59686 0.3798022,1.08509 0.3939008,1.08496 0.014099,-1.2e-4 0.1930656,-0.48848 0.3977042,-1.08521 l 0.3720703,-1.08496 0.3060527,-0.0123 c 0.1699205,-0.007 0.3247537,0.006 0.3480965,0.0298 0.070654,0.0707 0.6057797,3.32314 0.5565676,3.38281 -0.047767,0.0579 -0.5166779,0.0711 -0.6020556,0.0169 -0.031032,-0.0197 -0.1123256,-0.38158 -0.1972032,-0.87787 -0.1833786,-1.07223 -0.1819046,-1.06573 -0.2240926,-0.98847 -0.018447,0.0338 -0.1664741,0.45098 -0.3289481,0.92711 -0.1624738,0.47612 -0.3156342,0.89005 -0.3403563,0.91984 -0.058125,0.07 -0.492751,0.0719 -0.580279,0.002 -0.03584,-0.0284 -0.1990722,-0.4563 -0.362739,-0.95084 -0.1636668,-0.49455 -0.3146326,-0.89917 -0.3354794,-0.89917 -0.020847,0 -0.037903,0.0156 -0.037903,0.0346 0,0.1013 -0.2971055,1.69511 -0.3307048,1.77404 -0.035724,0.0839 -0.068086,0.093 -0.3311647,0.093 -0.23296383,0 -0.29683983,-0.0137 -0.31777982,-0.0683 z m 7.60456772,0.0409 c -0.03975,-0.016 -0.051676,-0.31087 -0.051676,-1.27752 v -1.25668 l 0.095227,-0.0239 c 0.052375,-0.0131 0.1965519,-0.0181 0.3203939,-0.0111 0.1822458,0.0103 0.2324525,0.0294 0.2633902,0.0998 0.038095,0.0867 0.038974,0.0866 0.2625799,-0.031 0.4340858,-0.22835 0.9228372,-0.12527 1.1874772,0.25043 l 0.124024,0.17607 0.02848,0.97542 c 0.01825,0.62506 0.01368,1.00306 -0.01273,1.05241 -0.03536,0.0661 -0.08342,0.0753 -0.338537,0.0649 l -0.297325,-0.0121 -0.02067,-0.84932 c -0.017667,-0.72589 -0.031498,-0.86584 -0.09518,-0.96302 -0.1935043,-0.29532 -0.6020987,-0.2072 -0.7568696,0.16322 -0.041548,0.0994 -0.057456,0.3359 -0.057456,0.85404 0,0.50218 -0.014841,0.73137 -0.049609,0.76614 -0.048434,0.0484 -0.4956158,0.065 -0.6015136,0.0222 z m 2.7698562,0 c -0.03974,-0.016 -0.05168,-0.31014 -0.05168,-1.27389 0,-1.10447 0.0078,-1.25601 0.06539,-1.27813 0.115498,-0.0443 0.53652,-0.0268 0.587797,0.0245 0.07084,0.0708 0.07084,2.43444 0,2.50527 -0.04843,0.0484 -0.495616,0.065 -0.601514,0.0222 z m 1.114144,-0.0222 c -0.03567,-0.0357 -0.04961,-0.3132 -0.04961,-0.98771 v -0.93809 l -0.103353,-0.0259 c -0.0969,-0.0243 -0.103353,-0.0426 -0.103353,-0.29308 0,-0.24629 0.0076,-0.26906 0.09762,-0.29165 0.08858,-0.0222 0.09973,-0.0525 0.120471,-0.3267 0.01257,-0.16621 0.05267,-0.35986 0.08912,-0.43034 0.108096,-0.20903 0.39713,-0.31834 0.715528,-0.27059 0.232894,0.0349 0.341524,0.13789 0.341524,0.32371 0,0.22811 -0.03331,0.2721 -0.206067,0.2721 -0.189039,0 -0.258631,0.0738 -0.241171,0.25568 0.01184,0.12338 0.02758,0.13843 0.157684,0.15077 0.208014,0.0197 0.248213,0.0711 0.248213,0.31702 0,0.24593 -0.0402,0.29728 -0.248213,0.31701 l -0.144528,0.0137 -0.01113,0.94889 c -0.0082,0.69585 -0.0247,0.95752 -0.06201,0.98122 -0.08086,0.0514 -0.54573,0.039 -0.600716,-0.016 z m 4.383769,0.0152 c -0.04088,-0.026 -0.04981,-0.40726 -0.04134,-1.7667 l 0.0108,-1.73361 0.306416,-0.0123 c 0.217198,-0.009 0.31632,0.003 0.340431,0.0413 0.05752,0.0907 0.04381,3.39786 -0.01433,3.456 -0.05543,0.0554 -0.52013,0.0672 -0.601973,0.0152 z m -5.334123,-2.74362 c -0.260066,-0.0696 -0.384445,-0.44979 -0.216867,-0.66283 0.194284,-0.247 0.549322,-0.2349 0.707246,0.0241 0.214976,0.35256 -0.08755,0.74662 -0.490379,0.63874 z m -7.6245586,-5.14671 -3.75040128,-3.74882 3.68838958,-3.69562 c 2.0286142,-2.03258 3.7233307,-3.71469 3.7660369,-3.73801 0.067456,-0.0368 0.2777869,0.15748 1.6025184,1.48042 l 1.524871,1.52282 1.498277,-1.49785 c 0.824052,-0.82382 1.526328,-1.49786 1.560612,-1.49786 0.03428,0 1.741215,1.67956 3.793179,3.73236 l 3.730844,3.73237 -2.212359,2.21042 c -1.216797,1.21574 -2.244794,2.21557 -2.284437,2.22185 -0.04756,0.008 -0.578154,-0.49511 -1.560143,-1.47795 -0.818437,-0.81915 -1.506815,-1.48936 -1.52973,-1.48936 -0.02291,0 -1.390321,1.34875 -3.038682,2.99723 -1.6483609,1.64848 -3.0063691,2.99714 -3.0177966,2.99702 -0.011428,-1.2e-4 -1.7084584,-1.68718 -3.771179,-3.74902 z m 4.5436792,0.10234 c 0.4163582,-0.41415 0.7570151,-0.78167 0.7570151,-0.8167 0,-0.035 -0.6511231,-0.71463 -1.4469401,-1.5102 -0.795817,-0.79557 -1.4469401,-1.4653 -1.4469401,-1.48829 0,-0.023 0.6418213,-0.6834 1.4262695,-1.4676 0.7844482,-0.7842 1.4262695,-1.44472 1.4262695,-1.46782 0,-0.0541 -1.4551512,-1.50875 -1.5092312,-1.50875 -0.02243,0 -1.0593875,1.01848 -2.3043496,2.26329 l -2.2635674,2.26329 2.2426148,2.2429 c 1.2334383,1.23359 2.2694416,2.24289 2.3022297,2.24289 0.032788,0 0.4002715,-0.33885 0.8166298,-0.75301 z m 9.0978764,-2.9783 0.753923,-0.75475 -2.273245,-2.27296 -2.273245,-2.27297 -2.214822,2.21123 c -1.218152,1.21617 -2.2341937,2.24625 -2.2578706,2.28907 -0.037275,0.0674 0.050344,0.17135 0.6533534,0.77514 0.3830212,0.38352 0.7199272,0.69731 0.7486802,0.69731 0.02875,0 0.71106,-0.66321 1.516239,-1.4738 l 1.46396,-1.4738 0.220546,0.18892 c 0.1213,0.10391 0.812041,0.78572 1.53498,1.51514 0.722939,0.72942 1.327742,1.32622 1.344006,1.32622 0.01626,0 0.368837,-0.33964 0.783495,-0.75475 z"
         id="path110"
         inkscape:connector-curvature="0" />
      <path
         style="fill:#a0a0a0;stroke-width:0.04134114"
         d="m 5.9665289,296.0253 c -0.5442149,-0.20072 -0.9040858,-0.88483 -0.8000124,-1.52083 0.1053939,-0.64406 0.5325314,-1.05343 1.138008,-1.09067 0.2599126,-0.016 0.3144995,-0.005 0.5359297,0.10795 0.1355977,0.0692 0.2472188,0.12197 0.2480469,0.11735 8.268e-4,-0.005 0.022043,-0.0456 0.047145,-0.0911 0.03669,-0.0665 0.096172,-0.0851 0.3033328,-0.0951 0.154319,-0.007 0.281121,0.007 0.3160952,0.0361 0.078905,0.0655 0.087194,2.43215 0.00879,2.51055 -0.02799,0.028 -0.1620874,0.0496 -0.3077145,0.0496 -0.2188823,0 -0.2677633,-0.0138 -0.3216635,-0.0907 l -0.063559,-0.0908 -0.1733194,0.0974 c -0.2215807,0.12453 -0.6768616,0.15398 -0.9310815,0.0602 z m 0.7988076,-0.64053 c 0.2397786,-0.11608 0.3559072,-0.31234 0.3614857,-0.61093 0.00535,-0.28649 -0.095815,-0.50954 -0.2838086,-0.62572 -0.1789794,-0.11062 -0.5338655,-0.11309 -0.6980121,-0.005 -0.4599748,0.30325 -0.3868424,1.086 0.1181819,1.26492 0.2247259,0.0796 0.2962324,0.0763 0.5021531,-0.0234 z m 7.6723695,0.63918 c -0.250227,-0.092 -0.603856,-0.43036 -0.739556,-0.70772 -0.0955,-0.1952 -0.11345,-0.28527 -0.11345,-0.56932 0,-0.28332 0.01803,-0.37429 0.112467,-0.5673 0.222926,-0.45565 0.643962,-0.73768 1.144304,-0.76651 0.675924,-0.0389 1.219075,0.3637 1.389857,1.03032 0.148696,0.58042 -0.153208,1.22596 -0.707728,1.51328 -0.262135,0.13583 -0.807379,0.16959 -1.085894,0.0673 z m 0.923321,-0.76958 c 0.18241,-0.19904 0.24633,-0.43909 0.183603,-0.68952 -0.141482,-0.56483 -0.815064,-0.68299 -1.168992,-0.20506 -0.199306,0.26913 -0.110644,0.775 0.169958,0.96969 0.131445,0.0912 0.185602,0.1029 0.414844,0.0896 0.241416,-0.014 0.275215,-0.0279 0.400587,-0.16471 z m 3.274074,0.79742 c -0.587651,-0.1897 -0.967709,-0.87343 -0.859389,-1.54604 0.102253,-0.63493 0.529124,-1.05055 1.122758,-1.09316 0.271323,-0.0195 0.35071,0.004 0.789064,0.22952 0.0164,0.008 0.035,-0.24181 0.04134,-0.55613 l 0.01152,-0.57149 h 0.330729 0.330729 l 0.0108,1.71087 c 0.0078,1.22862 -0.0024,1.72678 -0.03607,1.76733 -0.03057,0.0368 -0.137731,0.0565 -0.308177,0.0565 -0.222184,0 -0.270828,-0.0136 -0.32487,-0.0907 l -0.06356,-0.0908 -0.17332,0.0974 c -0.190066,0.10682 -0.663384,0.15391 -0.871558,0.0867 z m 0.638499,-0.62445 c 0.339626,-0.0943 0.542392,-0.48995 0.445696,-0.86962 -0.08489,-0.33331 -0.28361,-0.49294 -0.613671,-0.49294 -0.414001,0 -0.64476,0.24376 -0.645756,0.68213 -7.2e-4,0.31637 0.123178,0.534 0.367076,0.64477 0.19705,0.0895 0.240392,0.0929 0.446655,0.0357 z m -18.43423892,0.55352 c -0.023656,-0.0616 0.43537522,-2.87337 0.53073942,-3.25097 l 0.039568,-0.15666 0.3378697,0.012 0.3378697,0.012 0.3682669,1.08521 c 0.2025468,0.59686 0.3798022,1.08509 0.3939008,1.08496 0.014099,-1.2e-4 0.1930656,-0.48848 0.3977042,-1.08521 l 0.3720703,-1.08496 0.3060527,-0.0123 c 0.1699205,-0.007 0.3247537,0.006 0.3480965,0.0298 0.070654,0.0707 0.6057797,3.32314 0.5565676,3.38281 -0.047767,0.0579 -0.5166779,0.0711 -0.6020556,0.0169 -0.031032,-0.0197 -0.1123256,-0.38158 -0.1972032,-0.87787 -0.1833786,-1.07223 -0.1819046,-1.06573 -0.2240926,-0.98847 -0.018447,0.0338 -0.1664741,0.45098 -0.3289481,0.92711 -0.1624738,0.47612 -0.3156342,0.89005 -0.3403563,0.91984 -0.058125,0.07 -0.492751,0.0719 -0.580279,0.002 -0.03584,-0.0284 -0.1990722,-0.4563 -0.362739,-0.95084 -0.1636668,-0.49455 -0.3146326,-0.89917 -0.3354794,-0.89917 -0.020847,0 -0.037903,0.0156 -0.037903,0.0346 0,0.1013 -0.2971055,1.69511 -0.3307048,1.77404 -0.035724,0.0839 -0.068086,0.093 -0.3311647,0.093 -0.23296383,0 -0.29683983,-0.0137 -0.31777982,-0.0683 z m 7.60456772,0.0409 c -0.03975,-0.016 -0.051676,-0.31087 -0.051676,-1.27752 v -1.25668 l 0.095227,-0.0239 c 0.052375,-0.0131 0.1965519,-0.0181 0.3203939,-0.0111 0.1822458,0.0103 0.2324525,0.0294 0.2633902,0.0998 0.038095,0.0867 0.038974,0.0866 0.2625799,-0.031 0.4340858,-0.22835 0.9228372,-0.12527 1.1874772,0.25043 l 0.124024,0.17607 0.02848,0.97542 c 0.01825,0.62506 0.01368,1.00306 -0.01273,1.05241 -0.03536,0.0661 -0.08342,0.0753 -0.338537,0.0649 l -0.297325,-0.0121 -0.02067,-0.84932 c -0.017667,-0.72589 -0.031498,-0.86584 -0.09518,-0.96302 -0.1935043,-0.29532 -0.6020987,-0.2072 -0.7568696,0.16322 -0.041548,0.0994 -0.057456,0.3359 -0.057456,0.85404 0,0.50218 -0.014841,0.73137 -0.049609,0.76614 -0.048434,0.0484 -0.4956158,0.065 -0.6015136,0.0222 z m 2.7698562,0 c -0.03974,-0.016 -0.05168,-0.31014 -0.05168,-1.27389 0,-1.10447 0.0078,-1.25601 0.06539,-1.27813 0.115498,-0.0443 0.53652,-0.0268 0.587797,0.0245 0.07084,0.0708 0.07084,2.43444 0,2.50527 -0.04843,0.0484 -0.495616,0.065 -0.601514,0.0222 z m 1.114144,-0.0222 c -0.03567,-0.0357 -0.04961,-0.3132 -0.04961,-0.98771 v -0.93809 l -0.103353,-0.0259 c -0.0969,-0.0243 -0.103353,-0.0426 -0.103353,-0.29308 0,-0.24629 0.0076,-0.26906 0.09762,-0.29165 0.08858,-0.0222 0.09973,-0.0525 0.120471,-0.3267 0.01257,-0.16621 0.05267,-0.35986 0.08912,-0.43034 0.108096,-0.20903 0.39713,-0.31834 0.715528,-0.27059 0.232894,0.0349 0.341524,0.13789 0.341524,0.32371 0,0.22811 -0.03331,0.2721 -0.206067,0.2721 -0.189039,0 -0.258631,0.0738 -0.241171,0.25568 0.01184,0.12338 0.02758,0.13843 0.157684,0.15077 0.208014,0.0197 0.248213,0.0711 0.248213,0.31702 0,0.24593 -0.0402,0.29728 -0.248213,0.31701 l -0.144528,0.0137 -0.01113,0.94889 c -0.0082,0.69585 -0.0247,0.95752 -0.06201,0.98122 -0.08086,0.0514 -0.54573,0.039 -0.600716,-0.016 z m 4.383769,0.0152 c -0.04088,-0.026 -0.04981,-0.40726 -0.04134,-1.7667 l 0.0108,-1.73361 0.306416,-0.0123 c 0.217198,-0.009 0.31632,0.003 0.340431,0.0413 0.05752,0.0907 0.04381,3.39786 -0.01433,3.456 -0.05543,0.0554 -0.52013,0.0672 -0.601973,0.0152 z m -5.334123,-2.74362 c -0.260066,-0.0696 -0.384445,-0.44979 -0.216867,-0.66283 0.194284,-0.247 0.549322,-0.2349 0.707246,0.0241 0.214976,0.35256 -0.08755,0.74662 -0.490379,0.63874 z M 0.04288483,284.43413 c -0.04696772,-0.0297 0.76526943,-0.8656 3.63802067,-3.74398 2.0341687,-2.03815 3.7334299,-3.72481 3.7761361,-3.74813 0.067456,-0.0368 0.2777869,0.15748 1.6025184,1.48042 l 1.524871,1.52282 1.498277,-1.49785 c 0.824052,-0.82382 1.526229,-1.49786 1.560392,-1.49786 0.09012,0 7.498827,7.42244 7.464363,7.4782 -0.01992,0.0322 -0.467319,0.0459 -1.503725,0.0459 h -1.475367 l -2.263425,-2.26315 -2.263425,-2.26314 -2.263145,2.26314 -2.2631452,2.26315 H 7.6175305 c -1.1419648,0 -1.4577,-0.0112 -1.4577,-0.0519 0,-0.0285 0.6418213,-0.69352 1.4262695,-1.47772 0.7844482,-0.7842 1.4262695,-1.44472 1.4262695,-1.46782 0,-0.0542 -1.4552442,-1.50875 -1.5095132,-1.50875 -0.022585,0 -1.0548276,1.0139 -2.2938721,2.2531 l -2.2528079,2.25309 -1.4264117,-6.3e-4 c -0.80162488,-3.8e-4 -1.45289752,-0.0174 -1.48687977,-0.0389 z"
         id="path108"
         inkscape:connector-curvature="0" />
      <path
         style="fill:#29669a;stroke-width:0.04134114"
         d="m 5.87902,295.94234 c -0.6291994,-0.31354 -0.8934541,-1.18794 -0.5587967,-1.84902 0.1971584,-0.38946 0.6098472,-0.64758 1.0364283,-0.64825 0.2461828,-3.7e-4 0.5919494,0.11129 0.6536395,0.2111 0.041378,0.067 0.101984,0.0377 0.1424475,-0.0687 0.038139,-0.10032 0.053118,-0.10468 0.3193707,-0.093 l 0.2793553,0.0122 v 1.24023 1.24024 l -0.2793553,0.0122 c -0.2653304,0.0116 -0.2813373,0.007 -0.3188416,-0.0916 l -0.039486,-0.10385 -0.2331269,0.12263 c -0.3165239,0.1665 -0.6874871,0.17235 -1.0016347,0.0158 z m 0.9887756,-0.57278 c 0.1957705,-0.13303 0.284384,-0.32958 0.2835423,-0.62889 -0.00131,-0.46652 -0.2694429,-0.73561 -0.7048231,-0.70733 -0.3990954,0.0259 -0.6333203,0.28983 -0.6333203,0.71357 0,0.43742 0.2678266,0.72347 0.6773652,0.72347 0.1744621,0 0.2641191,-0.024 0.3772359,-0.10082 z m 7.5300054,0.59837 c -0.255261,-0.11588 -0.565727,-0.42513 -0.677382,-0.67474 -0.145526,-0.32534 -0.138585,-0.7954 0.01641,-1.11102 0.137752,-0.28051 0.373079,-0.50328 0.680157,-0.64386 0.1982,-0.0907 0.267948,-0.10128 0.563067,-0.0851 0.526326,0.0289 0.908894,0.27541 1.131239,0.72893 0.09635,0.19653 0.114729,0.287 0.114729,0.56474 0,0.27833 -0.01831,0.36808 -0.11558,0.56649 -0.140986,0.28757 -0.45465,0.58005 -0.718466,0.66994 -0.273439,0.0932 -0.771993,0.0854 -0.994171,-0.0154 z m 0.860319,-0.59155 c 0.235023,-0.15838 0.327491,-0.33611 0.327491,-0.62947 0,-0.27836 -0.08497,-0.455 -0.292967,-0.609 -0.361912,-0.26798 -0.919474,-0.0375 -1.030666,0.42595 -0.05689,0.23714 -0.02659,0.41841 0.103684,0.62029 0.183839,0.28489 0.616635,0.37811 0.892458,0.19223 z m 3.229949,0.56596 c -0.269706,-0.1344 -0.51961,-0.41535 -0.615783,-0.69228 -0.109555,-0.31547 -0.09774,-0.81232 0.026,-1.09309 0.124271,-0.28199 0.46403,-0.59764 0.720613,-0.66948 0.294969,-0.0826 0.685582,-0.041 0.890755,0.0947 0.0944,0.0625 0.189584,0.10249 0.211525,0.0889 0.02243,-0.0139 0.03989,-0.26792 0.03989,-0.58032 v -0.55567 h 0.310512 0.310512 l -0.01079,1.726 -0.01079,1.72599 -0.279356,0.0122 c -0.26533,0.0116 -0.281337,0.007 -0.318841,-0.0916 l -0.03949,-0.10385 -0.233127,0.12263 c -0.316524,0.1665 -0.687487,0.17235 -1.001635,0.0158 z m 1.009359,-0.58244 c 0.268591,-0.17599 0.351611,-0.70366 0.161696,-1.02772 -0.133453,-0.22772 -0.332675,-0.32407 -0.620684,-0.30019 -0.384428,0.0319 -0.616196,0.30078 -0.616196,0.71492 0,0.60011 0.585443,0.93388 1.075184,0.61299 z m -18.63687863,0.6044 c -0.0162982,-0.0489 0.51433113,-3.16543 0.55859313,-3.28078 0.019906,-0.0519 0.089915,-0.0657 0.3331136,-0.0657 H 2.060167 l 0.367764,1.1033 c 0.2022701,0.60681 0.3874239,1.10984 0.4114528,1.11785 0.0245,0.008 0.2067415,-0.47189 0.4149137,-1.09296 l 0.3712247,-1.10751 h 0.3262837 0.3262836 l 0.2773809,1.63297 c 0.1525592,0.89814 0.2695769,1.65623 0.2600391,1.68465 -0.011464,0.0342 -0.1071422,0.0517 -0.2822947,0.0517 -0.1631081,0 -0.2802995,-0.0199 -0.3048781,-0.0517 -0.021959,-0.0284 -0.1091779,-0.46095 -0.1938201,-0.96118 -0.1429161,-0.84462 -0.1910188,-1.03262 -0.2415611,-0.94411 -0.010869,0.019 -0.1549911,0.44388 -0.3202712,0.94411 -0.16528,0.50023 -0.3195447,0.93354 -0.3428103,0.96292 -0.028741,0.0363 -0.1280573,0.0496 -0.3098138,0.0413 l -0.2675127,-0.0121 -0.3274271,-0.95078 c -0.1800849,-0.52293 -0.3438332,-0.96719 -0.3638851,-0.98724 -0.040635,-0.0406 -0.037112,-0.0566 -0.2458372,1.1112 l -0.1477875,0.82682 -0.2957015,0.0121 c -0.19383256,0.008 -0.3010958,-0.004 -0.31135973,-0.0349 z m 7.59249673,-0.007 c -0.011414,-0.0297 -0.01581,-0.59336 -0.00977,-1.25247 l 0.010986,-1.19839 0.2793553,-0.0122 c 0.2653304,-0.0116 0.2813372,-0.007 0.3188415,0.0916 l 0.039486,0.10386 0.2392639,-0.12634 c 0.2111371,-0.11148 0.2713902,-0.12456 0.5125504,-0.11127 0.3360558,0.0185 0.5692728,0.15588 0.7065968,0.41614 0.08829,0.16733 0.09274,0.22168 0.09384,1.14717 l 0.0012,0.97152 -0.299723,0.0121 c -0.186135,0.008 -0.301682,-0.004 -0.304891,-0.031 -0.0028,-0.0237 -0.0083,-0.39197 -0.01207,-0.8183 -0.0073,-0.82328 -0.041148,-0.9837 -0.2285208,-1.08398 -0.2085487,-0.11161 -0.4955162,-0.02 -0.6337577,0.20224 -0.084343,0.13562 -0.093723,0.21332 -0.1126728,0.93342 l -0.020671,0.78548 -0.2796203,0.0122 c -0.2013082,0.009 -0.2854329,-0.003 -0.3003736,-0.0418 z m 2.7698569,0 c -0.01141,-0.0297 -0.01581,-0.59336 -0.0098,-1.25247 l 0.01099,-1.19839 h 0.289388 0.289388 v 1.24023 1.24024 l -0.279621,0.0122 c -0.201308,0.009 -0.285432,-0.003 -0.300373,-0.0418 z m 1.126012,0.0244 c -0.01609,-0.0161 -0.02925,-0.45449 -0.02925,-0.97423 v -0.94498 l -0.103353,-0.0393 c -0.09311,-0.0354 -0.103353,-0.062 -0.103353,-0.26871 0,-0.20325 0.01117,-0.23367 0.09786,-0.26663 0.08905,-0.0339 0.09957,-0.0667 0.116831,-0.3649 0.02991,-0.51665 0.237662,-0.7119 0.699321,-0.65722 0.31855,0.0377 0.367563,0.0802 0.367563,0.31868 v 0.20525 l -0.155029,6.4e-4 c -0.198322,8.1e-4 -0.241435,0.0311 -0.27694,0.19481 -0.04791,0.22086 -0.0012,0.29436 0.196321,0.30871 l 0.173636,0.0126 v 0.24805 0.24804 l -0.1757,0.0127 c -0.09664,0.007 -0.179485,0.0163 -0.184112,0.0207 -0.0046,0.004 -0.01858,0.44514 -0.03101,0.97947 l -0.02259,0.97152 -0.27047,0.012 c -0.148758,0.007 -0.283633,-10e-4 -0.299723,-0.0172 z m 4.382161,0 c -0.01609,-0.0161 -0.02925,-0.7982 -0.02925,-1.73802 v -1.70877 h 0.310512 0.310513 l -0.01079,1.726 -0.01079,1.72599 -0.270469,0.012 c -0.148758,0.007 -0.283634,-10e-4 -0.299724,-0.0172 z m -5.382932,-2.75063 c -0.329574,-0.18124 -0.286554,-0.68161 0.06525,-0.75888 0.444582,-0.0976 0.67906,0.50618 0.286588,0.73802 -0.134282,0.0793 -0.2347,0.0853 -0.351834,0.0209 z m -11.28024511,-8.7895 c -0.02339068,-0.0378 7.37584501,-7.49568 7.43478091,-7.49366 0.022332,7.6e-4 0.7248616,0.68473 1.5611772,1.51992 l 1.520574,1.51852 1.498277,-1.49785 c 0.824052,-0.82382 1.526127,-1.49786 1.560165,-1.49786 0.0787,0 7.495913,7.41417 7.456571,7.45351 -0.01608,0.0161 -0.681852,0.0292 -1.479487,0.0292 H 18.16971 l -2.283868,-2.28359 -2.283868,-2.28359 -2.284965,2.28359 -2.2849661,2.28359 H 7.6166073 c -1.0842393,0 -1.4154356,-0.0118 -1.4154356,-0.0503 0,-0.0277 0.6418212,-0.69309 1.4262695,-1.47872 0.7844482,-0.78563 1.4262695,-1.44686 1.4262695,-1.4694 0,-0.0619 -1.5015406,-1.5491 -1.5639914,-1.5491 -0.029823,0 -1.070681,1.0232 -2.313018,2.27377 l -2.2587945,2.27376 H 1.5027344 c -0.77834486,0 -1.42402083,-0.0143 -1.43483551,-0.0318 z"
         id="path106"
         inkscape:connector-curvature="0" />
      <path
         style="fill:#5c5c5c;stroke-width:0.04134114"
         d="m 5.87902,295.94234 c -0.6291994,-0.31354 -0.8934541,-1.18794 -0.5587967,-1.84902 0.1971584,-0.38946 0.6098472,-0.64758 1.0364283,-0.64825 0.2461828,-3.7e-4 0.5919494,0.11129 0.6536395,0.2111 0.041378,0.067 0.101984,0.0377 0.1424475,-0.0687 0.038139,-0.10032 0.053118,-0.10468 0.3193707,-0.093 l 0.2793553,0.0122 v 1.24023 1.24024 l -0.2793553,0.0122 c -0.2653304,0.0116 -0.2813373,0.007 -0.3188416,-0.0916 l -0.039486,-0.10385 -0.2331269,0.12263 c -0.3165239,0.1665 -0.6874871,0.17235 -1.0016347,0.0158 z m 0.9887756,-0.57278 c 0.1957705,-0.13303 0.284384,-0.32958 0.2835423,-0.62889 -0.00131,-0.46652 -0.2694429,-0.73561 -0.7048231,-0.70733 -0.3990954,0.0259 -0.6333203,0.28983 -0.6333203,0.71357 0,0.43742 0.2678266,0.72347 0.6773652,0.72347 0.1744621,0 0.2641191,-0.024 0.3772359,-0.10082 z m 7.5300054,0.59837 c -0.255261,-0.11588 -0.565727,-0.42513 -0.677382,-0.67474 -0.145526,-0.32534 -0.138585,-0.7954 0.01641,-1.11102 0.137752,-0.28051 0.373079,-0.50328 0.680157,-0.64386 0.1982,-0.0907 0.267948,-0.10128 0.563067,-0.0851 0.526326,0.0289 0.908894,0.27541 1.131239,0.72893 0.09635,0.19653 0.114729,0.287 0.114729,0.56474 0,0.27833 -0.01831,0.36808 -0.11558,0.56649 -0.140986,0.28757 -0.45465,0.58005 -0.718466,0.66994 -0.273439,0.0932 -0.771993,0.0854 -0.994171,-0.0154 z m 0.860319,-0.59155 c 0.235023,-0.15838 0.327491,-0.33611 0.327491,-0.62947 0,-0.27836 -0.08497,-0.455 -0.292967,-0.609 -0.361912,-0.26798 -0.919474,-0.0375 -1.030666,0.42595 -0.05689,0.23714 -0.02659,0.41841 0.103684,0.62029 0.183839,0.28489 0.616635,0.37811 0.892458,0.19223 z m 3.229949,0.56596 c -0.269706,-0.1344 -0.51961,-0.41535 -0.615783,-0.69228 -0.109555,-0.31547 -0.09774,-0.81232 0.026,-1.09309 0.124271,-0.28199 0.46403,-0.59764 0.720613,-0.66948 0.294969,-0.0826 0.685582,-0.041 0.890755,0.0947 0.0944,0.0625 0.189584,0.10249 0.211525,0.0889 0.02243,-0.0139 0.03989,-0.26792 0.03989,-0.58032 v -0.55567 h 0.310512 0.310512 l -0.01079,1.726 -0.01079,1.72599 -0.279356,0.0122 c -0.26533,0.0116 -0.281337,0.007 -0.318841,-0.0916 l -0.03949,-0.10385 -0.233127,0.12263 c -0.316524,0.1665 -0.687487,0.17235 -1.001635,0.0158 z m 1.009359,-0.58244 c 0.268591,-0.17599 0.351611,-0.70366 0.161696,-1.02772 -0.133453,-0.22772 -0.332675,-0.32407 -0.620684,-0.30019 -0.384428,0.0319 -0.616196,0.30078 -0.616196,0.71492 0,0.60011 0.585443,0.93388 1.075184,0.61299 z m -18.63687863,0.6044 c -0.0162982,-0.0489 0.51433113,-3.16543 0.55859313,-3.28078 0.019906,-0.0519 0.089915,-0.0657 0.3331136,-0.0657 H 2.060167 l 0.367764,1.1033 c 0.2022701,0.60681 0.3874239,1.10984 0.4114528,1.11785 0.0245,0.008 0.2067415,-0.47189 0.4149137,-1.09296 l 0.3712247,-1.10751 h 0.3262837 0.3262836 l 0.2773809,1.63297 c 0.1525592,0.89814 0.2695769,1.65623 0.2600391,1.68465 -0.011464,0.0342 -0.1071422,0.0517 -0.2822947,0.0517 -0.1631081,0 -0.2802995,-0.0199 -0.3048781,-0.0517 -0.021959,-0.0284 -0.1091779,-0.46095 -0.1938201,-0.96118 -0.1429161,-0.84462 -0.1910188,-1.03262 -0.2415611,-0.94411 -0.010869,0.019 -0.1549911,0.44388 -0.3202712,0.94411 -0.16528,0.50023 -0.3195447,0.93354 -0.3428103,0.96292 -0.028741,0.0363 -0.1280573,0.0496 -0.3098138,0.0413 l -0.2675127,-0.0121 -0.3274271,-0.95078 c -0.1800849,-0.52293 -0.3438332,-0.96719 -0.3638851,-0.98724 -0.040635,-0.0406 -0.037112,-0.0566 -0.2458372,1.1112 l -0.1477875,0.82682 -0.2957015,0.0121 c -0.19383256,0.008 -0.3010958,-0.004 -0.31135973,-0.0349 z m 7.59249673,-0.007 c -0.011414,-0.0297 -0.01581,-0.59336 -0.00977,-1.25247 l 0.010986,-1.19839 0.2793553,-0.0122 c 0.2653304,-0.0116 0.2813372,-0.007 0.3188415,0.0916 l 0.039486,0.10386 0.2392639,-0.12634 c 0.2111371,-0.11148 0.2713902,-0.12456 0.5125504,-0.11127 0.3360558,0.0185 0.5692728,0.15588 0.7065968,0.41614 0.08829,0.16733 0.09274,0.22168 0.09384,1.14717 l 0.0012,0.97152 -0.299723,0.0121 c -0.186135,0.008 -0.301682,-0.004 -0.304891,-0.031 -0.0028,-0.0237 -0.0083,-0.39197 -0.01207,-0.8183 -0.0073,-0.82328 -0.041148,-0.9837 -0.2285208,-1.08398 -0.2085487,-0.11161 -0.4955162,-0.02 -0.6337577,0.20224 -0.084343,0.13562 -0.093723,0.21332 -0.1126728,0.93342 l -0.020671,0.78548 -0.2796203,0.0122 c -0.2013082,0.009 -0.2854329,-0.003 -0.3003736,-0.0418 z m 2.7698569,0 c -0.01141,-0.0297 -0.01581,-0.59336 -0.0098,-1.25247 l 0.01099,-1.19839 h 0.289388 0.289388 v 1.24023 1.24024 l -0.279621,0.0122 c -0.201308,0.009 -0.285432,-0.003 -0.300373,-0.0418 z m 1.126012,0.0244 c -0.01609,-0.0161 -0.02925,-0.45449 -0.02925,-0.97423 v -0.94498 l -0.103353,-0.0393 c -0.09311,-0.0354 -0.103353,-0.062 -0.103353,-0.26871 0,-0.20325 0.01117,-0.23367 0.09786,-0.26663 0.08905,-0.0339 0.09957,-0.0667 0.116831,-0.3649 0.02991,-0.51665 0.237662,-0.7119 0.699321,-0.65722 0.31855,0.0377 0.367563,0.0802 0.367563,0.31868 v 0.20525 l -0.155029,6.4e-4 c -0.198322,8.1e-4 -0.241435,0.0311 -0.27694,0.19481 -0.04791,0.22086 -0.0012,0.29436 0.196321,0.30871 l 0.173636,0.0126 v 0.24805 0.24804 l -0.1757,0.0127 c -0.09664,0.007 -0.179485,0.0163 -0.184112,0.0207 -0.0046,0.004 -0.01858,0.44514 -0.03101,0.97947 l -0.02259,0.97152 -0.27047,0.012 c -0.148758,0.007 -0.283633,-10e-4 -0.299723,-0.0172 z m 4.382161,0 c -0.01609,-0.0161 -0.02925,-0.7982 -0.02925,-1.73802 v -1.70877 h 0.310512 0.310513 l -0.01079,1.726 -0.01079,1.72599 -0.270469,0.012 c -0.148758,0.007 -0.283634,-10e-4 -0.299724,-0.0172 z m -5.382932,-2.75063 c -0.329574,-0.18124 -0.286554,-0.68161 0.06525,-0.75888 0.444582,-0.0976 0.67906,0.50618 0.286588,0.73802 -0.134282,0.0793 -0.2347,0.0853 -0.351834,0.0209 z M 0.04478624,284.41493 c 5.19593846,-5.24001 7.34777436,-7.3979 7.41074936,-7.4316 0.069191,-0.037 0.2710677,0.14929 1.6040244,1.48046 l 1.524871,1.52281 1.498277,-1.49785 c 0.824052,-0.82382 1.526127,-1.49786 1.560165,-1.49786 0.03404,0 1.735241,1.67343 3.78045,3.71874 l 3.718561,3.71873 -1.505814,0.003 -1.505814,0.003 -2.264137,-2.26385 -2.264138,-2.26386 -2.264303,2.26291 -2.2643026,2.26292 H 7.6579439 c -1.1081002,0 -1.4154311,-0.0113 -1.4154311,-0.0519 0,-0.0285 0.6325195,-0.68422 1.4055989,-1.45704 0.7730794,-0.77283 1.405599,-1.42404 1.405599,-1.44713 0,-0.0626 -1.5009068,-1.55011 -1.5640199,-1.55011 -0.029838,0 -1.0614297,1.01389 -2.2924251,2.2531 l -2.2381736,2.2529 H 1.4933264 c -0.80617109,0 -1.45801417,-0.008 -1.44854016,-0.0174 z"
         id="path104"
         inkscape:connector-curvature="0" />
      <path
         style="fill:#030303;stroke-width:0.04134114"
         d="m 6.0151365,295.95962 c -0.1615703,-0.0597 -0.4102889,-0.24113 -0.5174476,-0.37736 -0.2831534,-0.35997 -0.3528492,-0.97208 -0.1586603,-1.39345 0.1431772,-0.31068 0.2879518,-0.47038 0.5405011,-0.59623 0.3107841,-0.15487 0.6464044,-0.14879 0.9624297,0.0174 0.2822579,0.14848 0.3414498,0.15359 0.3588598,0.031 0.011865,-0.0836 0.039523,-0.0943 0.2715927,-0.10533 l 0.2583821,-0.0123 v 1.22154 1.22154 H 7.4620766 c -0.2425407,0 -0.2687175,-0.008 -0.2687175,-0.084 0,-0.13354 -0.1028042,-0.13794 -0.2923248,-0.0125 -0.1452827,0.0961 -0.2263023,0.11789 -0.4687574,0.12587 -0.1612143,0.005 -0.3489275,-0.011 -0.4171404,-0.0362 z m 0.6498394,-0.44971 c 0.3975162,-0.11041 0.6285657,-0.52364 0.5323102,-0.95204 -0.081509,-0.36277 -0.3429562,-0.57577 -0.7067264,-0.57577 -0.2700486,0 -0.4546009,0.0987 -0.6067193,0.32441 -0.2746611,0.40757 -0.077595,1.02289 0.379343,1.18446 0.2023777,0.0716 0.2108861,0.072 0.4017925,0.0189 z m 7.8174861,0.44548 c -0.229574,-0.0888 -0.506383,-0.3124 -0.631989,-0.51046 -0.364964,-0.57549 -0.202235,-1.3777 0.354236,-1.74629 0.256901,-0.17017 0.469065,-0.22452 0.80122,-0.20527 1.052008,0.061 1.55363,1.30191 0.858428,2.12361 -0.0586,0.0693 -0.205749,0.17998 -0.327002,0.24605 -0.186143,0.10142 -0.275161,0.12192 -0.571861,0.1317 -0.208048,0.007 -0.405098,-0.009 -0.483032,-0.0393 z m 0.747628,-0.50129 c 0.292597,-0.12226 0.473192,-0.53302 0.392412,-0.89255 -0.08681,-0.38637 -0.37611,-0.6027 -0.763082,-0.5706 -0.727321,0.0603 -0.927339,1.05416 -0.290334,1.4426 0.152979,0.0933 0.463795,0.10295 0.661004,0.0205 z m 3.304938,0.47076 c -0.09451,-0.048 -0.241281,-0.15467 -0.326153,-0.23709 -0.474095,-0.46044 -0.495088,-1.32548 -0.04508,-1.85748 0.297378,-0.35157 0.848174,-0.44571 1.291723,-0.22078 0.133946,0.0679 0.266792,0.12373 0.295214,0.12402 0.0389,4.2e-4 0.05168,-0.14251 0.05168,-0.57825 v -0.57878 h 0.268718 0.268717 v 1.69499 1.69499 H 20.07113 c -0.242541,0 -0.268718,-0.008 -0.268718,-0.084 0,-0.13368 -0.102861,-0.13791 -0.293031,-0.0121 -0.241924,0.16011 -0.714179,0.18648 -0.974349,0.0544 z m 0.738997,-0.41495 c 0.423015,-0.11749 0.64346,-0.55021 0.511518,-1.00407 -0.10143,-0.34891 -0.334355,-0.52374 -0.697774,-0.52374 -0.820386,0 -0.996479,1.23273 -0.215537,1.50887 0.202378,0.0716 0.210887,0.072 0.401793,0.0189 z m -18.36451982,0.37958 c 0,-0.0445 0.12092282,-0.77546 0.26871742,-1.62434 0.1477946,-0.84887 0.2687175,-1.55748 0.2687175,-1.57468 0,-0.0273 0.5749573,-0.048 0.5811364,-0.021 0.0013,0.006 0.1733807,0.51263 0.3824055,1.12655 0.2485896,0.73012 0.3995689,1.11621 0.4364891,1.11621 0.03687,0 0.1889361,-0.38708 0.4385097,-1.11621 l 0.3820657,-1.11621 h 0.2849604 0.2849604 l 0.2723671,1.62243 c 0.1498017,0.89234 0.262973,1.63183 0.2514918,1.64331 -0.011481,0.0115 -0.1281419,0.0209 -0.2592458,0.0209 -0.1913644,0 -0.2425609,-0.0143 -0.2596191,-0.0723 -0.011686,-0.0398 -0.089507,-0.48162 -0.1729342,-0.98185 -0.083427,-0.50023 -0.1681369,-0.92718 -0.1882434,-0.94878 -0.023041,-0.0247 -0.051869,-0.024 -0.077972,0.002 -0.022778,0.0228 -0.1930944,0.4831 -0.3784806,1.02293 l -0.3370657,0.98152 -0.2519718,-0.0121 -0.2519719,-0.0121 -0.3346355,-0.99219 c -0.2253403,-0.66813 -0.3552756,-0.99622 -0.3978305,-1.00454 -0.049524,-0.01 -0.078874,0.0753 -0.1356756,0.39274 -0.039864,0.2228 -0.1212898,0.67484 -0.1809455,1.00454 l -0.1084649,0.59945 -0.2583822,0.0123 c -0.2331486,0.0111 -0.25838212,0.004 -0.25838212,-0.0686 z m 7.56542942,-1.1406 v -1.22154 h 0.2490701 c 0.2276355,0 0.2524518,0.009 0.2883648,0.10335 0.049645,0.13058 0.086288,0.1295 0.2950935,-0.009 0.3499296,-0.23157 0.859142,-0.16238 1.124331,0.15278 0.13994,0.16631 0.148591,0.23505 0.161366,1.28217 l 0.01084,0.88884 -0.253519,0.0122 -0.253519,0.0122 -0.01744,-0.81833 c -0.01898,-0.89053 -0.04743,-1.01409 -0.2596211,-1.12766 -0.248423,-0.13295 -0.5387693,-0.0292 -0.7041835,0.25163 -0.072151,0.1225 -0.085315,0.23778 -0.1033529,0.90519 l -0.020671,0.76481 -0.2583821,0.0123 -0.2583822,0.0123 z m 2.7698564,-0.002 v -1.2235 l 0.258382,0.0123 0.258383,0.0123 v 1.19889 1.1989 l -0.258383,0.0123 -0.258382,0.0123 z m 1.135809,1.16789 c -0.01053,-0.0284 -0.0239,-0.47025 -0.02971,-0.98185 -0.01055,-0.92952 -0.01063,-0.93019 -0.103577,-0.94339 -0.08325,-0.0118 -0.09302,-0.0365 -0.09302,-0.23483 0,-0.19836 0.0098,-0.22302 0.09302,-0.23484 0.08538,-0.0121 0.09509,-0.0411 0.118268,-0.35275 0.02923,-0.3931 0.09805,-0.5273 0.317362,-0.61894 0.161174,-0.0673 0.518075,-0.0465 0.617536,0.036 0.02899,0.0241 0.05271,0.11589 0.05271,0.20405 0,0.15908 -0.0012,0.1603 -0.163021,0.1603 -0.196925,0 -0.291732,0.10883 -0.291732,0.33487 0,0.17875 0.05304,0.23235 0.248213,0.25087 0.144044,0.0137 0.144528,0.0144 0.144528,0.22042 0,0.20601 -4.84e-4,0.20675 -0.144528,0.22042 -0.251259,0.0238 -0.248213,0.011 -0.248213,1.04554 v 0.94579 h -0.249344 c -0.161702,0 -0.256075,-0.0182 -0.268493,-0.0517 z m 4.362564,-1.64134 v -1.69696 h 0.269181 0.269181 l -0.0108,1.68466 -0.0108,1.68465 -0.258382,0.0123 -0.258382,0.0123 z m -5.321849,-1.06508 c -0.126178,-0.0237 -0.259206,-0.20393 -0.259206,-0.35124 0,-0.15707 0.199489,-0.36332 0.3514,-0.36332 0.153727,0 0.351399,0.20622 0.351399,0.36659 0,0.21909 -0.218206,0.39026 -0.443593,0.34797 z m -11.25595042,-8.8485 c 0,-0.0171 1.65543762,-1.68645 3.67875042,-3.70967 l 3.6787504,-3.67857 1.5206365,1.51859 c 0.8363499,0.83522 1.5390051,1.51859 1.5614551,1.51859 0.02245,0 0.710376,-0.66976 1.528723,-1.48834 0.818347,-0.81858 1.502344,-1.48352 1.519993,-1.47764 0.01765,0.006 1.678554,1.65697 3.690901,3.66908 l 3.658813,3.65839 -1.416283,0.0109 -1.416284,0.0109 -2.253925,-2.25364 c -1.239659,-1.23951 -2.272531,-2.25365 -2.29527,-2.25365 -0.02274,0 -1.055107,1.01389 -2.294151,2.25309 l -2.2528083,2.2531 H 7.6691494 6.2636328 l 1.4157097,-1.41616 c 0.7786402,-0.77888 1.4157093,-1.44414 1.4157093,-1.47835 0,-0.0809 -1.5318816,-1.61168 -1.6128446,-1.61168 -0.033966,0 -1.0755196,1.01389 -2.3145641,2.25309 l -2.2528079,2.2531 H 1.5400998 c -0.75610435,0 -1.37473522,-0.014 -1.37473522,-0.0311 z"
         id="path102"
         inkscape:connector-curvature="0" />
    </g>
  </g>
</svg>
